<?xml version="1.0" encoding="UTF-8"?>
<svg width="48px" height="48px" viewBox="0 0 48 48" version="1.1" xmlns="http://www.w3.org/2000/svg" xmlns:xlink="http://www.w3.org/1999/xlink">
    <!-- Generator: Sketch 51.3 (57544) - http://www.bohemiancoding.com/sketch -->
    <title>button-contact-active</title>
    <desc>Created with Sketch.</desc>
    <defs>
        <filter x="-57.7%" y="-40.7%" width="200.0%" height="196.3%" filterUnits="objectBoundingBox" id="filter-1">
            <feOffset dx="-2" dy="2" in="SourceAlpha" result="shadowOffsetOuter1"></feOffset>
            <feGaussianBlur stdDeviation="4" in="shadowOffsetOuter1" result="shadowBlurOuter1"></feGaussianBlur>
            <feColorMatrix values="0 0 0 0 0   0 0 0 0 0   0 0 0 0 0  0 0 0 0.8 0" type="matrix" in="shadowBlurOuter1" result="shadowMatrixOuter1"></feColorMatrix>
            <feMerge>
                <feMergeNode in="shadowMatrixOuter1"></feMergeNode>
                <feMergeNode in="SourceGraphic"></feMergeNode>
            </feMerge>
        </filter>
    </defs>
    <g id="button-contact-active" stroke="none" stroke-width="1" fill="none" fill-rule="evenodd">
        <circle id="circle" fill="#1C1C1C" fill-rule="nonzero" cx="24" cy="24" r="24"></circle>
        <g id="Phone" filter="url(#filter-1)" transform="translate(10.000000, 11.000000)" fill-rule="nonzero">
            <path d="M25.9076532,23.71863 C25.7242776,24.9693664 25.2803721,26.0912642 24.8035648,26.5097965 C24.5898184,26.6870073 23.4807449,26.9145963 22.4202187,27 C16.7649486,26.904104 11.3668338,24.7387686 7.21607195,20.9004613 L6.09633797,19.7803378 C2.25994529,15.6295008 0.0958676353,10.2321705 0,4.57739468 C0.0847469896,3.51929884 0.311608162,2.41221352 0.488081305,2.19866563 C0.907521382,1.72065165 2.03047651,1.27612024 3.28250783,1.09250609 C4.59574105,0.899865528 5.79707756,1.01281138 6.4173795,1.38736882 C7.01590032,1.74873381 7.56955509,2.92077843 7.86221981,4.44624171 C8.2463039,6.44825316 8.09092164,8.55240962 7.50198758,9.36062048 C7.26415915,9.52865057 6.18583999,9.61868323 5.17439809,9.55781282 C5.06457213,9.5299621 4.94592634,9.53181367 4.83050171,9.57054237 C4.72972565,9.6044107 4.64352148,9.662118 4.57587727,9.73525507 C4.47839906,9.83593426 4.41428279,9.97032747 4.40339222,10.1215391 C4.39403554,10.2518435 4.4258636,10.3754358 4.48744897,10.4799725 C5.3356858,12.9743476 6.69263466,15.2844913 8.45759617,17.248237 C8.47845697,17.2817967 8.50284569,17.3138135 8.53076235,17.3437472 C8.71260408,17.5387022 8.8984339,17.7300313 9.08779166,17.9171942 C9.27530875,18.1070575 9.46673725,18.2932175 9.66223053,18.475443 C9.69221792,18.5033709 9.72419937,18.5277499 9.757638,18.5485029 C11.7202402,20.3131275 14.0290397,21.6703292 16.5215215,22.518426 C16.6253653,22.5801451 16.7480759,22.6120075 16.8776122,22.6022096 C17.0289297,22.5911773 17.1632211,22.5255237 17.2633836,22.4261561 C17.2736606,22.4164353 17.2828639,22.4057888 17.2925274,22.3953737 C17.295135,22.3923649 17.2978192,22.3893561 17.3005035,22.3862701 C17.3545729,22.3251683 17.398672,22.2535742 17.4258217,22.1709478 C17.4639387,22.0549932 17.4654726,21.9360297 17.4375559,21.8258612 C17.3771976,20.816832 17.4665463,19.7418406 17.6335861,19.5043766 C18.4482309,18.9102536 20.5656018,18.7565732 22.5790522,19.1479491 C24.0921503,19.4421175 25.2552164,19.9942715 25.6139915,20.5889345 C25.9873384,21.2078222 26.0998487,22.4071003 25.9076532,23.71863 Z" id="Path" fill="#FFFFFF"></path>
            <path d="M23.9316921,24 C24.0405084,23.6473481 24.1289648,23.2578296 24.1881849,22.853851 C24.3668073,21.6347609 24.2622426,20.5200106 23.9152618,19.9447435 C23.5818237,19.3919937 22.5008943,18.8787568 21.0946524,18.6053221 C20.0225545,18.3968959 18.9187541,18.3547727 18.0291063,18.4606653 C18.0471332,17.8571536 18.1191907,17.3497754 18.224429,17.2001462 C18.9815429,16.6478984 20.9493834,16.5050497 22.8206423,16.8688405 C24.2268842,17.1422752 25.3078137,17.6555122 25.6412517,18.2082619 C25.9882326,18.783529 26.0927973,19.8982793 25.9141748,21.1173694 C25.7437493,22.2799511 25.3311928,23.322775 24.8880581,23.7118082 C24.7772899,23.8036564 24.4078075,23.9100641 23.9316921,24 Z M2,2.08361135 C2.0901264,1.60132708 2.19736924,1.22599076 2.28975361,1.11418096 C2.67957249,0.669858483 3.72322362,0.256658661 4.88683548,0.0859860506 C6.1073271,-0.0930767674 7.22382426,0.011908401 7.80031998,0.360066183 C8.35657278,0.695961353 8.871128,1.78539761 9.1431245,3.20334278 C9.50008426,5.06424792 9.35567522,7.02009866 8.80833216,7.77134499 C8.65958553,7.87645284 8.15708056,7.94872707 7.55782583,7.96751435 C7.66097886,7.08687994 7.62011473,5.99800197 7.41713457,4.93982437 C7.14513807,3.5218792 6.63058285,2.43244294 6.07433005,2.09654777 C5.49783433,1.74838999 4.38133717,1.64340482 3.16084555,1.82246764 C2.7512746,1.8825414 2.35656578,1.97266226 2,2.08361135 Z M6.32488317,9.67444071 C7.11679602,11.6630927 8.26153639,13.5062559 9.6964549,15.1030244 C9.71584249,15.1342188 9.73850886,15.1639789 9.76445402,15.1918028 C9.93345394,15.373017 10.1061603,15.5508607 10.2821455,15.724832 C10.45642,15.9013133 10.6343296,16.0743523 10.816017,16.2437341 C10.8438867,16.2696936 10.8736096,16.2923543 10.9046867,16.3116446 C12.5014906,17.7475848 14.344881,18.8932861 16.3335215,19.6853348 C16.295742,20.090458 16.2867352,20.6009618 16.3162527,21.0944889 C16.3421979,21.1968924 16.3407723,21.3074711 16.3053472,21.415253 C16.2801148,21.4920557 16.23913,21.5586036 16.1888791,21.6153989 C16.1863844,21.6182673 16.1838896,21.6210641 16.1814662,21.6238608 C16.1724852,21.6335418 16.1639318,21.643438 16.1543806,21.6524736 C16.0612916,21.7448376 15.936484,21.8058638 15.7958527,21.8161185 C15.6754643,21.8252258 15.5614197,21.7956091 15.4649094,21.7382401 C13.1484486,20.9499191 11.0026985,19.6883761 9.17869679,18.0481262 C9.14761963,18.0288359 9.11789674,18.0061752 9.09002708,17.9802157 C8.90833969,17.8108339 8.73043003,17.6377948 8.55615554,17.4613136 C8.38017039,17.2873423 8.20746401,17.1094986 8.03846409,16.9282844 C8.01251893,16.9004605 7.98985256,16.8707003 7.97046497,16.839506 C6.33014646,15.0141696 5.06902643,12.86685 4.28069277,10.5482841 C4.22345661,10.4511155 4.19387627,10.3362341 4.20257218,10.215114 C4.21269364,10.07456 4.27228197,9.94963916 4.36287619,9.85605607 C4.42574331,9.78807387 4.50585968,9.73443391 4.59951885,9.7029527 C4.7067921,9.66695369 4.81705903,9.66523262 4.91912899,9.69112036 C5.41096136,9.72072413 5.91980897,9.71192871 6.32488317,9.67444071 Z" id="Combined-Shape" fill="#BCBCBC"></path>
        </g>
    </g>
</svg>