<?xml version="1.0" encoding="UTF-8"?>
<svg width="48px" height="48px" viewBox="0 0 48 48" version="1.1" xmlns="http://www.w3.org/2000/svg" xmlns:xlink="http://www.w3.org/1999/xlink">
    <!-- Generator: Sketch 51.3 (57544) - http://www.bohemiancoding.com/sketch -->
    <title>button-work-active</title>
    <desc>Created with Sketch.</desc>
    <defs>
        <filter x="-75.0%" y="-26.2%" width="230.0%" height="161.9%" filterUnits="objectBoundingBox" id="filter-1">
            <feOffset dx="-2" dy="2" in="SourceAlpha" result="shadowOffsetOuter1"></feOffset>
            <feGaussianBlur stdDeviation="4" in="shadowOffsetOuter1" result="shadowBlurOuter1"></feGaussianBlur>
            <feColorMatrix values="0 0 0 0 0   0 0 0 0 0   0 0 0 0 0  0 0 0 0.8 0" type="matrix" in="shadowBlurOuter1" result="shadowMatrixOuter1"></feColorMatrix>
            <feMerge>
                <feMergeNode in="shadowMatrixOuter1"></feMergeNode>
                <feMergeNode in="SourceGraphic"></feMergeNode>
            </feMerge>
        </filter>
    </defs>
    <g id="button-work-active" stroke="none" stroke-width="1" fill="none" fill-rule="evenodd">
        <path d="M24.0028568,48 C37.2182608,48 48,37.2189775 48,24 C48,10.7810225 37.2182608,0 24.0028568,0 C10.7821402,0 0,10.7810225 0,24 C0,37.2189775 10.7822404,48 24.0028568,48 Z" id="Shape" fill="#1C1C1C"></path>
        <g id="Group" filter="url(#filter-1)" transform="translate(13.000000, 6.000000)">
            <path d="M10.1428571,0.857142857 C10.4176275,2.78302518 10.702941,4.73164459 10.9775264,6.65752692 C11.5530551,6.91804348 12.1335779,6.92926044 12.7142857,6.65752692 L10.1428571,0.857142857 Z" id="Shape" fill="#C5C5C5"></path>
            <path d="M10.1428571,0.857142857 C9.86916959,2.78029934 9.52841892,4.72616074 9.25473137,6.64931723 C8.69694674,6.92641807 8.12387025,6.92641807 7.57142857,6.64931723 L10.1428571,0.857142857 Z" id="Shape" fill="#ABABAB"></path>
            <path d="M10.1708839,0.857142857 C9.89965461,2.77709969 9.55676095,4.73090611 9.28571429,6.64542283 C9.87920515,6.9163203 10.3038967,6.93888669 11,6.64542283 L10.1708839,0.857142857 Z" id="Shape" fill="#B9B9B9"></path>
            <polygon id="Shape" fill="#202020" points="10.5746637 0.857142857 9.28571429 3.42857143 11.8571429 3.42857143"></polygon>
            <path d="M9.28571429,3.42857143 L10.1428571,3.42857143 L9.72695454,0.857142857 C9.49674719,1.31478799 9.38797793,2.85153574 9.28571429,3.42857143 Z" id="Shape" fill="#3F3F3F"></path>
            <polygon id="Shape" fill="#585858" points="10.1428571 0.857142857 10.4242471 3.42857143 11 3.42857143"></polygon>
            <path d="M13.5714286,6 C12.8350909,6.28290489 12.1530255,6.23181642 11.5494612,6.01120715 L11.5494612,6 C10.8312143,6.31127615 10.1612094,6.27725083 9.54526155,6 C8.93577467,6.25453362 8.27783034,6.26028865 7.57142857,6 L7.57142857,41.7112391 C8.86351924,41.8982269 10.1851151,42 11.5312627,42 C12.2195737,42 12.8955011,41.9715278 13.5714286,41.9206412 L13.5714286,6 Z" id="Shape" fill="#848484"></path>
            <path d="M11,6 C10.3963828,6.28855894 9.82413448,6.27725083 9.27787209,6 C8.75249129,6.26028865 8.18544012,6.26604367 7.57142857,6 L7.57142857,41.7112391 C8.68502055,41.8982269 9.82404167,42 10.9842228,42 L10.9999072,41.994245 L10.9999072,6 L11,6 Z" id="Shape" fill="#666666"></path>
            <path d="M9.28571429,6 C8.68623956,6.28915013 8.11828159,6.23229135 7.57142857,6 L7.57142857,41.7844021 C8.13422756,41.8810215 8.70715693,41.9546749 9.28571429,42 L9.28571429,6 Z" id="Shape" fill="#FFFFFF"></path>
            <path d="M0.714285714,2.57142857 C1.61771464,4.27599454 2.54612194,6.00961561 3.44928228,7.71428571 C4.05171745,7.71428571 4.57348772,7.4691398 5,6.95541644 L0.714285714,2.57142857 Z" id="Shape" fill="#C5C5C5"></path>
            <path d="M1.06839945,2.57142857 C1.54272629,4.32984784 1.95995446,6.14111578 2.42857143,7.9047163 C1.97157812,8.36405693 1.38855987,8.59118374 0.714285714,8.57008195 L1.06839945,2.57142857 Z" id="Shape" fill="#ABABAB"></path>
            <path d="M0.714285714,2.57142857 C1.10438145,4.54767745 1.4428222,6.5951797 1.83291794,8.57142857 C2.42527311,8.57142857 2.79205702,8.39927703 3.28571429,7.80585182 L0.714285714,2.57142857 Z" id="Shape" fill="#B9B9B9"></path>
            <polygon id="Shape" fill="#202020" points="0.830954812 2.57142857 0.714285714 5.14285714 2.42857143 4.27247318"></polygon>
            <path d="M1.46196811,5.14285714 L2.42857143,4.81174853 L0.715429647,2.57142857 C0.684312197,3.08682707 1.29698956,4.56341707 1.46196811,5.14285714 Z" id="Shape" fill="#3F3F3F"></path>
            <polygon id="Shape" fill="#585858" points="0.714285714 2.57142857 1.80718645 4.28571429 2.42857143 4.03731619"></polygon>
            <path d="M5.79163477,7.71428571 C5.27613724,8.23200902 4.67747581,8.4267262 4.08425316,8.44350703 L4.08425316,8.43238601 C3.58546752,8.97225206 3.01459331,9.17818956 2.3825081,9.15028771 C1.96144758,9.60118558 1.41282294,9.84038685 0.714285714,9.85706839 L14.1725981,42 C16.0514497,41.7492805 17.858806,41.2764385 19.5714286,40.6081842 L5.79163477,7.71428571 Z" id="Shape" fill="#848484"></path>
            <path d="M4.09375034,7.71428571 C3.60476474,8.22412928 3.03783498,8.44592507 2.39286189,8.42921375 C1.97596969,8.87824393 1.42044398,9.11645439 0.714285714,9.13306683 L14.2105261,41.1428571 C15.4613019,40.9764361 16.6784605,40.7103405 17.8571429,40.3612816 L4.09375034,7.71428571 Z" id="Shape" fill="#666666"></path>
            <path d="M2.39228931,8.57142857 C1.91695143,9.07364076 1.34081757,9.2556816 0.714285714,9.27222181 L14.2965941,41.1428571 C14.9230262,41.0601561 15.532792,40.9553029 16.1428571,40.8282977 L2.39228931,8.57142857 Z" id="Shape" fill="#FFFFFF"></path>
        </g>
    </g>
</svg>