<?xml version="1.0" encoding="UTF-8"?>
<svg width="48px" height="48px" viewBox="0 0 48 48" version="1.1" xmlns="http://www.w3.org/2000/svg" xmlns:xlink="http://www.w3.org/1999/xlink">
    <!-- Generator: Sketch 51.3 (57544) - http://www.bohemiancoding.com/sketch -->
    <title>button-about-active</title>
    <desc>Created with Sketch.</desc>
    <defs>
        <path d="M23.9142857,41 C18.3333333,41 13.3333333,38.4666667 10,34.4952381 C11.6952381,33.7619048 15.9238095,32.2380952 18.6,31.4571429 C18.8095238,31.3904762 18.847619,31.3809524 18.847619,30.4380952 C18.847619,29.4285714 18.7333333,28.7142857 18.4857143,28.1904762 C18.152381,27.4761905 17.752381,26.2666667 17.6095238,25.1809524 C17.2095238,24.7142857 16.6666667,23.8 16.3142857,22.047619 C16.0095238,20.5047619 16.152381,19.9428571 16.352381,19.4190476 C16.3714286,19.3619048 16.4,19.3047619 16.4095238,19.247619 C16.4857143,18.8952381 16.3809524,17.0095238 16.1142857,15.552381 C15.9333333,14.552381 16.1619048,12.4285714 17.5428571,10.6666667 C18.4095238,9.55238095 20.0761905,8.19047619 23.0666667,8 L24.7333333,8 C27.7714286,8.19047619 29.4380952,9.55238095 30.3047619,10.6666667 C31.6857143,12.4285714 31.9142857,14.552381 31.7238095,15.552381 C31.4571429,17.0095238 31.352381,18.8857143 31.4285714,19.247619 C31.4380952,19.3047619 31.4666667,19.3619048 31.4857143,19.4095238 C31.6857143,19.9333333 31.8380952,20.4952381 31.5238095,22.0380952 C31.1714286,23.7904762 30.6285714,24.7047619 30.2285714,25.1714286 C30.0857143,26.2571429 29.6857143,27.4571429 29.352381,28.1809524 C29.0380952,28.8380952 28.7238095,29.6190476 28.7238095,30.4 C28.7238095,31.3428571 28.7619048,31.352381 28.9809524,31.4190476 C31.5238095,32.1714286 35.9047619,33.6857143 37.8380952,34.4761905 C34.5047619,38.4571429 29.5047619,41 23.9142857,41 Z" id="path-1"></path>
        <filter x="-64.7%" y="-42.4%" width="215.0%" height="197.0%" filterUnits="objectBoundingBox" id="filter-2">
            <feOffset dx="-2" dy="2" in="SourceAlpha" result="shadowOffsetOuter1"></feOffset>
            <feGaussianBlur stdDeviation="5" in="shadowOffsetOuter1" result="shadowBlurOuter1"></feGaussianBlur>
            <feColorMatrix values="0 0 0 0 0   0 0 0 0 0   0 0 0 0 0  0 0 0 0.8 0" type="matrix" in="shadowBlurOuter1"></feColorMatrix>
        </filter>
    </defs>
    <g id="button-about-active" stroke="none" stroke-width="1" fill="none" fill-rule="evenodd">
        <path d="M24,0 C10.7423077,0 0,10.7423077 0,24 C0,37.2576923 10.7423077,48 24,48 C37.2576923,48 48,37.2576923 48,24 C48,10.7423077 37.2576923,0 24,0 Z" id="Shape" fill="#1C1C1C" fill-rule="nonzero"></path>
        <g id="Path" fill-rule="nonzero">
            <use fill="black" fill-opacity="1" filter="url(#filter-2)" xlink:href="#path-1"></use>
            <use fill="#FFFFFF" xlink:href="#path-1"></use>
        </g>
        <path d="M22.414087,40.9385618 C27.3945131,40.5288455 31.8058792,38.0975228 34.8380952,34.4761905 C32.9047619,33.6857143 28.5238095,32.1714286 25.9809524,31.4190476 C25.7619048,31.352381 25.7238095,31.3428571 25.7238095,30.4 C25.7238095,29.6190476 26.0380952,28.8380952 26.352381,28.1809524 C26.6857143,27.4571429 27.0857143,26.2571429 27.2285714,25.1714286 C27.6285714,24.7047619 28.1714286,23.7904762 28.5238095,22.0380952 C28.8380952,20.4952381 28.6857143,19.9333333 28.4857143,19.4095238 C28.4666667,19.3619048 28.4380952,19.3047619 28.4285714,19.247619 C28.352381,18.8857143 28.4571429,17.0095238 28.7238095,15.552381 C28.9142857,14.552381 28.6857143,12.4285714 27.3047619,10.6666667 C26.5042208,9.63739959 25.0211006,8.39685801 22.4050447,8.06342742 C22.6180339,8.03588568 22.838497,8.0145331 23.0666667,8 L24.7333333,8 C27.7714286,8.19047619 29.4380952,9.55238095 30.3047619,10.6666667 C31.6857143,12.4285714 31.9142857,14.552381 31.7238095,15.552381 C31.4571429,17.0095238 31.352381,18.8857143 31.4285714,19.247619 C31.4380952,19.3047619 31.4666667,19.3619048 31.4857143,19.4095238 C31.6857143,19.9333333 31.8380952,20.4952381 31.5238095,22.0380952 C31.1714286,23.7904762 30.6285714,24.7047619 30.2285714,25.1714286 C30.0857143,26.2571429 29.6857143,27.4571429 29.352381,28.1809524 C29.0380952,28.8380952 28.7238095,29.6190476 28.7238095,30.4 C28.7238095,31.3428571 28.7619048,31.352381 28.9809524,31.4190476 C31.5238095,32.1714286 35.9047619,33.6857143 37.8380952,34.4761905 C34.5047619,38.4571429 29.5047619,41 23.9142857,41 C23.4091927,41 22.9088582,40.97925 22.414087,40.9385618 Z" id="Combined-Shape" fill="#BCBCBC" fill-rule="nonzero"></path>
    </g>
</svg>