<?xml version="1.0" encoding="UTF-8"?>
<svg width="48px" height="48px" viewBox="0 0 48 48" version="1.1" xmlns="http://www.w3.org/2000/svg" xmlns:xlink="http://www.w3.org/1999/xlink">
    <!-- Generator: Sketch 51.3 (57544) - http://www.bohemiancoding.com/sketch -->
    <title>button-work</title>
    <desc>Created with Sketch.</desc>
    <defs></defs>
    <g id="button-work" stroke="none" stroke-width="1" fill="none" fill-rule="evenodd">
        <path d="M24.0028568,48 C37.2182608,48 48,37.2189775 48,24 C48,10.7810225 37.2182608,0 24.0028568,0 C10.7821402,0 0,10.7810225 0,24 C0,37.2189775 10.7822404,48 24.0028568,48 Z" id="Shape" fill="#1C1C1C"></path>
        <path d="M23.1428571,6.85714286 C23.4176275,8.78302518 23.702941,10.7316446 23.9775264,12.6575269 C24.5530551,12.9180435 25.1335779,12.9292604 25.7142857,12.6575269 L23.1428571,6.85714286 Z" id="Shape" fill="#C5C5C5"></path>
        <path d="M23.1428571,6.85714286 C22.8691696,8.78029934 22.5284189,10.7261607 22.2547314,12.6493172 C21.6969467,12.9264181 21.1238703,12.9264181 20.5714286,12.6493172 L23.1428571,6.85714286 Z" id="Shape" fill="#ABABAB"></path>
        <path d="M23.1708839,6.85714286 C22.8996546,8.77709969 22.556761,10.7309061 22.2857143,12.6454228 C22.8792051,12.9163203 23.3038967,12.9388867 24,12.6454228 L23.1708839,6.85714286 Z" id="Shape" fill="#B9B9B9"></path>
        <polygon id="Shape" fill="#202020" points="23.5746637 6.85714286 22.2857143 9.42857143 24.8571429 9.42857143"></polygon>
        <path d="M22.2857143,9.42857143 L23.1428571,9.42857143 L22.7269545,6.85714286 C22.4967472,7.31478799 22.3879779,8.85153574 22.2857143,9.42857143 Z" id="Shape" fill="#3F3F3F"></path>
        <polygon id="Shape" fill="#585858" points="23.1428571 6.85714286 23.4242471 9.42857143 24 9.42857143"></polygon>
        <path d="M26.5714286,12 C25.8350909,12.2829049 25.1530255,12.2318164 24.5494612,12.0112072 L24.5494612,12 C23.8312143,12.3112761 23.1612094,12.2772508 22.5452616,12 C21.9357747,12.2545336 21.2778303,12.2602886 20.5714286,12 L20.5714286,47.7112391 C21.8635192,47.8982269 23.1851151,48 24.5312627,48 C25.2195737,48 25.8955011,47.9715278 26.5714286,47.9206412 L26.5714286,12 Z" id="Shape" fill="#848484"></path>
        <path d="M24,12 C23.3963828,12.2885589 22.8241345,12.2772508 22.2778721,12 C21.7524913,12.2602886 21.1854401,12.2660437 20.5714286,12 L20.5714286,47.7112391 C21.6850206,47.8982269 22.8240417,48 23.9842228,48 L23.9999072,47.994245 L23.9999072,12 L24,12 Z" id="Shape" fill="#666666"></path>
        <path d="M22.2857143,12 C21.6862396,12.2891501 21.1182816,12.2322914 20.5714286,12 L20.5714286,47.7844021 C21.1342276,47.8810215 21.7071569,47.9546749 22.2857143,48 L22.2857143,12 Z" id="Shape" fill="#414141"></path>
        <path d="M13.7142857,8.57142857 C14.6177146,10.2759945 15.5461219,12.0096156 16.4492823,13.7142857 C17.0517174,13.7142857 17.5734877,13.4691398 18,12.9554164 L13.7142857,8.57142857 Z" id="Shape" fill="#C5C5C5"></path>
        <path d="M14.0683995,8.57142857 C14.5427263,10.3298478 14.9599545,12.1411158 15.4285714,13.9047163 C14.9715781,14.3640569 14.3885599,14.5911837 13.7142857,14.570082 L14.0683995,8.57142857 Z" id="Shape" fill="#ABABAB"></path>
        <path d="M13.7142857,8.57142857 C14.1043814,10.5476774 14.4428222,12.5951797 14.8329179,14.5714286 C15.4252731,14.5714286 15.792057,14.399277 16.2857143,13.8058518 L13.7142857,8.57142857 Z" id="Shape" fill="#B9B9B9"></path>
        <polygon id="Shape" fill="#202020" points="13.8309548 8.57142857 13.7142857 11.1428571 15.4285714 10.2724732"></polygon>
        <path d="M14.4619681,11.1428571 L15.4285714,10.8117485 L13.7154296,8.57142857 C13.6843122,9.08682707 14.2969896,10.5634171 14.4619681,11.1428571 Z" id="Shape" fill="#3F3F3F"></path>
        <polygon id="Shape" fill="#585858" points="13.7142857 8.57142857 14.8071864 10.2857143 15.4285714 10.0373162"></polygon>
        <path d="M18.7916348,13.7142857 C18.2761372,14.232009 17.6774758,14.4267262 17.0842532,14.443507 L17.0842532,14.432386 C16.5854675,14.9722521 16.0145933,15.1781896 15.3825081,15.1502877 C14.9614476,15.6011856 14.4128229,15.8403869 13.7142857,15.8570684 L27.1725981,48 C29.0514497,47.7492805 30.858806,47.2764385 32.5714286,46.6081842 L18.7916348,13.7142857 Z" id="Shape" fill="#848484"></path>
        <path d="M17.0937503,13.7142857 C16.6047647,14.2241293 16.037835,14.4459251 15.3928619,14.4292137 C14.9759697,14.8782439 14.420444,15.1164544 13.7142857,15.1330668 L27.2105261,47.1428571 C28.4613019,46.9764361 29.6784605,46.7103405 30.8571429,46.3612816 L17.0937503,13.7142857 Z" id="Shape" fill="#666666"></path>
        <path d="M15.3922893,14.5714286 C14.9169514,15.0736408 14.3408176,15.2556816 13.7142857,15.2722218 L27.2965941,47.1428571 C27.9230262,47.0601561 28.532792,46.9553029 29.1428571,46.8282977 L15.3922893,14.5714286 Z" id="Shape" fill="#414141"></path>
    </g>
</svg>