<?xml version="1.0" encoding="UTF-8"?>
<svg width="48px" height="48px" viewBox="0 0 48 48" version="1.1" xmlns="http://www.w3.org/2000/svg" xmlns:xlink="http://www.w3.org/1999/xlink">
    <!-- Generator: Sketch 51.3 (57544) - http://www.bohemiancoding.com/sketch -->
    <title>button-contact</title>
    <desc>Created with Sketch.</desc>
    <defs></defs>
    <g id="button-contact" stroke="none" stroke-width="1" fill="none" fill-rule="evenodd">
        <circle id="circle" fill="#1C1C1C" fill-rule="nonzero" cx="24" cy="24" r="24"></circle>
        <path d="M35.9076532,34.71863 C35.7242776,35.9693664 35.2803721,37.0912642 34.8035648,37.5097965 C34.5898184,37.6870073 33.4807449,37.9145963 32.4202187,38 C26.7649486,37.904104 21.3668338,35.7387686 17.2160719,31.9004613 L16.096338,30.7803378 C12.2599453,26.6295008 10.0958676,21.2321705 10,15.5773947 C10.084747,14.5192988 10.3116082,13.4122135 10.4880813,13.1986656 C10.9075214,12.7206516 12.0304765,12.2761202 13.2825078,12.0925061 C14.595741,11.8998655 15.7970776,12.0128114 16.4173795,12.3873688 C17.0159003,12.7487338 17.5695551,13.9207784 17.8622198,15.4462417 C18.2463039,17.4482532 18.0909216,19.5524096 17.5019876,20.3606205 C17.2641592,20.5286506 16.18584,20.6186832 15.1743981,20.5578128 C15.0645721,20.5299621 14.9459263,20.5318137 14.8305017,20.5705424 C14.7297257,20.6044107 14.6435215,20.662118 14.5758773,20.7352551 C14.4783991,20.8359343 14.4142828,20.9703275 14.4033922,21.1215391 C14.3940355,21.2518435 14.4258636,21.3754358 14.487449,21.4799725 C15.3356858,23.9743476 16.6926347,26.2844913 18.4575962,28.248237 C18.478457,28.2817967 18.5028457,28.3138135 18.5307623,28.3437472 C18.7126041,28.5387022 18.8984339,28.7300313 19.0877917,28.9171942 C19.2753088,29.1070575 19.4667372,29.2932175 19.6622305,29.475443 C19.6922179,29.5033709 19.7241994,29.5277499 19.757638,29.5485029 C21.7202402,31.3131275 24.0290397,32.6703292 26.5215215,33.518426 C26.6253653,33.5801451 26.7480759,33.6120075 26.8776122,33.6022096 C27.0289297,33.5911773 27.1632211,33.5255237 27.2633836,33.4261561 C27.2736606,33.4164353 27.2828639,33.4057888 27.2925274,33.3953737 C27.295135,33.3923649 27.2978192,33.3893561 27.3005035,33.3862701 C27.3545729,33.3251683 27.398672,33.2535742 27.4258217,33.1709478 C27.4639387,33.0549932 27.4654726,32.9360297 27.4375559,32.8258612 C27.3771976,31.816832 27.4665463,30.7418406 27.6335861,30.5043766 C28.4482309,29.9102536 30.5656018,29.7565732 32.5790522,30.1479491 C34.0921503,30.4421175 35.2552164,30.9942715 35.6139915,31.5889345 C35.9873384,32.2078222 36.0998487,33.4071003 35.9076532,34.71863 Z" id="Path" fill="#666666" fill-rule="nonzero"></path>
        <path d="M33.9316921,35 C34.0405084,34.6473481 34.1289648,34.2578296 34.1881849,33.853851 C34.3668073,32.6347609 34.2622426,31.5200106 33.9152618,30.9447435 C33.5818237,30.3919937 32.5008943,29.8787568 31.0946524,29.6053221 C30.0225545,29.3968959 28.9187541,29.3547727 28.0291063,29.4606653 C28.0471332,28.8571536 28.1191907,28.3497754 28.224429,28.2001462 C28.9815429,27.6478984 30.9493834,27.5050497 32.8206423,27.8688405 C34.2268842,28.1422752 35.3078137,28.6555122 35.6412517,29.2082619 C35.9882326,29.783529 36.0927973,30.8982793 35.9141748,32.1173694 C35.7437493,33.2799511 35.3311928,34.322775 34.8880581,34.7118082 C34.7772899,34.8036564 34.4078075,34.9100641 33.9316921,35 Z M12,13.0836113 C12.0901264,12.6013271 12.1973692,12.2259908 12.2897536,12.114181 C12.6795725,11.6698585 13.7232236,11.2566587 14.8868355,11.0859861 C16.1073271,10.9069232 17.2238243,11.0119084 17.80032,11.3600662 C18.3565728,11.6959614 18.871128,12.7853976 19.1431245,14.2033428 C19.5000843,16.0642479 19.3556752,18.0200987 18.8083322,18.771345 C18.6595855,18.8764528 18.1570806,18.9487271 17.5578258,18.9675143 C17.6609789,18.0868799 17.6201147,16.998002 17.4171346,15.9398244 C17.1451381,14.5218792 16.6305828,13.4324429 16.0743301,13.0965478 C15.4978343,12.74839 14.3813372,12.6434048 13.1608455,12.8224676 C12.7512746,12.8825414 12.3565658,12.9726623 12,13.0836113 Z M16.3248832,20.6744407 C17.116796,22.6630927 18.2615364,24.5062559 19.6964549,26.1030244 C19.7158425,26.1342188 19.7385089,26.1639789 19.764454,26.1918028 C19.9334539,26.373017 20.1061603,26.5508607 20.2821455,26.724832 C20.45642,26.9013133 20.6343296,27.0743523 20.816017,27.2437341 C20.8438867,27.2696936 20.8736096,27.2923543 20.9046867,27.3116446 C22.5014906,28.7475848 24.344881,29.8932861 26.3335215,30.6853348 C26.295742,31.090458 26.2867352,31.6009618 26.3162527,32.0944889 C26.3421979,32.1968924 26.3407723,32.3074711 26.3053472,32.415253 C26.2801148,32.4920557 26.23913,32.5586036 26.1888791,32.6153989 C26.1863844,32.6182673 26.1838896,32.6210641 26.1814662,32.6238608 C26.1724852,32.6335418 26.1639318,32.643438 26.1543806,32.6524736 C26.0612916,32.7448376 25.936484,32.8058638 25.7958527,32.8161185 C25.6754643,32.8252258 25.5614197,32.7956091 25.4649094,32.7382401 C23.1484486,31.9499191 21.0026985,30.6883761 19.1786968,29.0481262 C19.1476196,29.0288359 19.1178967,29.0061752 19.0900271,28.9802157 C18.9083397,28.8108339 18.73043,28.6377948 18.5561555,28.4613136 C18.3801704,28.2873423 18.207464,28.1094986 18.0384641,27.9282844 C18.0125189,27.9004605 17.9898526,27.8707003 17.970465,27.839506 C16.3301465,26.0141696 15.0690264,23.86685 14.2806928,21.5482841 C14.2234566,21.4511155 14.1938763,21.3362341 14.2025722,21.215114 C14.2126936,21.07456 14.272282,20.9496392 14.3628762,20.8560561 C14.4257433,20.7880739 14.5058597,20.7344339 14.5995189,20.7029527 C14.7067921,20.6669537 14.817059,20.6652326 14.919129,20.6911204 C15.4109614,20.7207241 15.919809,20.7119287 16.3248832,20.6744407 Z" id="Combined-Shape" fill="#2F2F2F" fill-rule="nonzero"></path>
    </g>
</svg>