<?xml version="1.0" encoding="UTF-8"?>
<svg width="48px" height="48px" viewBox="0 0 48 48" version="1.1" xmlns="http://www.w3.org/2000/svg" xmlns:xlink="http://www.w3.org/1999/xlink">
    <!-- Generator: Sketch 51.3 (57544) - http://www.bohemiancoding.com/sketch -->
    <title>button-home</title>
    <desc>Created with Sketch.</desc>
    <defs></defs>
    <g id="button-home" stroke="none" stroke-width="1" fill="none" fill-rule="evenodd">
        <circle id="Oval" fill="#1C1C1C" fill-rule="nonzero" cx="24" cy="24" r="23.9470866"></circle>
        <path d="M36.9269861,27.5683824 L36.9269861,36.4571014 C36.9271028,37.260181 36.2993273,37.9111632 35.525137,37.9111632 L34.9269861,37.9111632 L34.9269861,27.5543464 L36.9269861,27.5683824 Z M21.7533435,29.5198905 C21.7530656,29.534018 21.752926,29.5481807 21.752926,29.5623773 L21.752926,37.9111632 L19.752926,37.9111632 L19.752926,31.5623773 C19.752926,30.4342906 20.634565,29.5198905 21.7222347,29.5198905 L21.7533435,29.5198905 Z M23.5073245,12.0961197 L25.2574321,10.2809629 C25.6186276,9.90634569 26.2042869,9.90634569 26.5654824,10.2809629 L39.7271844,23.9317445 C40.3120271,24.5383196 39.893899,25.575172 39.0668593,25.569364 L37.3662802,25.5574294 L24.5654824,12.2809629 C24.2792531,11.9840975 23.8520656,11.9224831 23.5073245,12.0961197 Z" id="Combined-Shape" fill="#2F2F2F" fill-rule="nonzero"></path>
        <path d="M34.9269861,25.5543464 L34.9269861,36.4571014 C34.9271028,37.260181 34.2993273,37.9111632 33.525137,37.9111632 L28.0698719,37.9111632 L28.0698719,29.5623773 C28.0699886,28.4342906 27.1882329,27.5198905 26.1006799,27.5198905 L21.7222347,27.5198905 C20.634565,27.5198905 19.752926,28.4342906 19.752926,29.5623773 L19.752926,37.9111632 L14.2977776,37.9111632 C13.5234706,37.9111632 12.8958118,37.260181 12.8958118,36.4571014 L12.8958118,25.3997817 L10.9204365,25.3859274 C10.0994635,25.3801194 9.69218523,24.3504059 10.2727113,23.7483079 L23.2574321,10.2809629 C23.6186276,9.90634569 24.2042869,9.90634569 24.5654824,10.2809629 L37.7271844,23.9317445 C38.3120271,24.5383196 37.893899,25.575172 37.0668593,25.569364 L34.9269861,25.5543464 Z" id="Combined-Shape" fill="#666666" fill-rule="nonzero"></path>
    </g>
</svg>