<svg height="512pt" viewBox="0 0 512.00004 512" width="512pt" xmlns="http://www.w3.org/2000/svg"><path d="m341.332031 298.667969h-170.664062c-9.425781 0-17.066407 7.640625-17.066407 17.066406v34.132813c0 9.425781 7.640626 17.066406 17.066407 17.066406h170.664062c9.425781 0 17.066407-7.640625 17.066407-17.066406v-34.132813c0-9.425781-7.640626-17.066406-17.066407-17.066406zm-170.664062 17.066406h69.390625l-22.757813 34.132813h-46.632812zm67.148437 34.132813 22.75-34.132813h13.652344l-22.75 34.132813zm34.132813 0 22.757812-34.132813h46.625v34.132813zm0 0"/><path d="m452.265625 307.199219h-68.265625c-4.710938 0-8.535156 3.820312-8.535156 8.535156 0 4.710937 3.824218 8.53125 8.535156 8.53125h68.265625c4.714844 0 8.535156-3.820313 8.535156-8.53125 0-4.714844-3.820312-8.535156-8.535156-8.535156zm0 0"/><path d="m418.132812 341.332031h-34.132812c-4.710938 0-8.535156 3.820313-8.535156 8.535157 0 4.710937 3.824218 8.53125 8.535156 8.53125h34.132812c4.714844 0 8.535157-3.820313 8.535157-8.53125 0-4.714844-3.820313-8.535157-8.535157-8.535157zm0 0"/><path d="m458.324219 343.808594c-3.421875-3.15625-8.695313-3.15625-12.117188 0-.753906.828125-1.359375 1.78125-1.792969 2.816406-.90625 2.066406-.90625 4.417969 0 6.484375.4375 1.03125 1.042969 1.984375 1.792969 2.816406 3.367188 3.300781 8.753907 3.300781 12.117188 0 .753906-.832031 1.359375-1.785156 1.792969-2.816406.910156-2.066406.910156-4.417969 0-6.484375-.433594-1.035156-1.039063-1.988281-1.792969-2.816406zm0 0"/><path d="m93.867188 341.332031h-34.132813c-4.714844 0-8.535156 3.820313-8.535156 8.535157 0 4.710937 3.820312 8.53125 8.535156 8.53125h34.132813c4.710937 0 8.53125-3.820313 8.53125-8.53125 0-4.714844-3.820313-8.535157-8.53125-8.535157zm0 0"/><path d="m134.058594 343.808594c-3.421875-3.15625-8.695313-3.15625-12.117188 0-.753906.828125-1.359375 1.78125-1.792968 2.816406-.910157 2.066406-.910157 4.417969 0 6.484375.4375 1.03125 1.042968 1.984375 1.792968 2.816406 3.363282 3.300781 8.753906 3.300781 12.117188 0 .75-.832031 1.355468-1.785156 1.792968-2.816406.910157-2.066406.910157-4.417969 0-6.484375-.433593-1.035156-1.039062-1.988281-1.792968-2.816406zm0 0"/><path d="m512 65.851562c.007812-5.035156-2.9375-9.605468-7.527344-11.679687-4.585937-2.074219-9.960937-1.265625-13.738281 2.0625l-28.40625 24.941406-38.980469-55.695312c-11.183594-15.964844-29.449218-25.4726565-48.9375-25.480469h-236.835937c-19.496094 0-37.761719 9.515625-48.9375 25.488281l-38.964844 55.679688-28.433594-24.941407c-3.777343-3.3125-9.144531-4.109374-13.722656-2.035156-4.578125 2.074219-7.515625 6.636719-7.515625 11.660156v84.214844c.0117188 4.523438 1.808594 8.859375 5 12.066406l11.316406 11.316407c-4.84375 3.140625-7.769531 8.511719-7.78125 14.285156v68.265625c.015625 6.070312 3.269532 11.671875 8.53125 14.695312v121.839844c0 9.425782 7.640625 17.066406 17.066406 17.066406h8.535157v51.199219c0 9.425781 7.640625 17.066407 17.066406 17.066407h68.265625v17.066406c0 9.425781 7.640625 17.066406 17.066406 17.066406h221.867188c9.425781 0 17.066406-7.640625 17.066406-17.066406v-17.066406h68.265625c9.425781 0 17.066406-7.640626 17.066406-17.066407v-51.199219h8.535157c9.425781 0 17.066406-7.640624 17.066406-17.066406v-121.839844c5.261718-3.023437 8.515625-8.625 8.53125-14.695312v-68.265625c-.007813-5.777344-2.941406-11.15625-7.789063-14.292969l11.304688-11.308594c3.199219-3.203124 5-7.539062 5.019531-12.066406zm-473.601562 28.152344c3.660156 3.183594 8.492187 4.683594 13.3125 4.128906 4.820312-.578124 9.164062-3.183593 11.949218-7.160156l38.960938-55.679687c7.984375-11.410157 21.027344-18.210938 34.953125-18.226563h236.835937c13.933594-.011718 26.996094 6.785156 34.984375 18.203125l38.988281 55.695313c2.785157 3.972656 7.128907 6.574218 11.949219 7.152344 4.816407.550781 9.640625-.941407 13.300781-4.121094l21.300782-18.722656v52.726562h-477.867188v-52.734375zm456.535156 56.0625-20.617188 20.601563h-436.660156l-20.589844-20.601563v-5h477.867188zm-8.535156 105.933594h-17.066407v-68.265625h17.066407zm-51.199219 0v-68.265625h17.066406v68.265625zm-34.132813 0v-68.265625h17.066406v68.265625zm-34.132812 0v-68.265625h17.066406v68.265625zm-34.132813 0v-68.265625h17.066407v68.265625zm-34.132812 0v-68.265625h17.066406v68.265625zm-34.132813 0v-68.265625h17.066406v68.265625zm-34.136718 0v-68.265625h17.066406v68.265625zm-34.132813 0v-68.265625h17.066406v68.265625zm-34.132813 0v-68.265625h17.066407v68.265625zm-34.132812 0v-68.265625h17.066406v68.265625zm-34.132812 0v-68.265625h17.066406v68.265625zm-34.132813 0v-68.265625h17.066406v68.265625zm-34.132813 0v-68.265625h17.066407v68.265625zm34.132813 153.601562h17.066406v51.199219h-17.066406zm51.199219 0v51.199219h-17.066406v-51.199219zm34.132812 0v51.199219h-17.066406v-51.199219zm34.132813 0v51.199219h-17.066407v-51.199219zm34.132812 0v51.199219h-17.066406v-51.199219zm34.132813 0v51.199219h-17.066406v-51.199219zm34.136718 0v51.199219h-17.066406v-51.199219zm34.132813 0v51.199219h-17.066406v-51.199219zm34.132813 0v51.199219h-17.066407v-51.199219zm34.132812 0v51.199219h-17.066406v-51.199219zm34.132812 0v51.199219h-17.066406v-51.199219zm-51.199218 85.332032h-221.867188v-17.066406h221.867188zm85.332031-34.132813h-17.066406v-51.199219h17.066406zm25.601563-68.265625h-443.734376v-119.46875h443.734376zm0 0"/></svg>