<svg height="504pt" viewBox="-29 0 504 504.53281" width="504pt" xmlns="http://www.w3.org/2000/svg"><path d="m380.414062 213.242188c-.269531-1.8125-1.136718-3.488282-2.46875-4.75-30.101562-54.246094-86.507812-88.671876-148.515624-90.648438-.34375-.039062-.691407-.058594-1.039063-.058594-1.535156 0-3.023437-.226562-4.566406-.226562-61.113281.070312-117.824219 31.820312-149.832031 83.882812-.148438.253906-.316407.472656-.453126.738282-32.582031 52.925781-34.648437 119.160156-5.429687 174.015624.324219 1.082032.867187 2.085938 1.59375 2.953126 29.683594 53.464843 84.957031 87.726562 146.046875 90.523437 1.859375.992187 4.0625 1.101563 6.007812.300781.699219 0 1.378907.109375 2.082032.109375 59.847656-.050781 115.574218-30.488281 147.960937-80.8125 2.085938-1.367187 3.445313-3.601562 3.703125-6.082031 30.949219-51.972656 32.8125-116.257812 4.925782-169.933594zm-21.152343 130.511718c-8.210938-14.292968-18.332031-27.394531-30.089844-38.945312-22.351563-21.933594-49.929687-37.800782-80.125-46.097656-5.875-1.601563-11.75-2.902344-17.625-3.929688 2.0625-1.675781 4.085937-3.304688 6.25-4.839844 15.898437-11.519531 33.761719-20.054687 52.710937-25.183594.355469-.089843.699219-.207031 1.035157-.351562 24.320312-6.464844 49.78125-7.386719 74.507812-2.695312 22.40625 43.652343 23.222657 95.246093 2.214844 139.585937-2.664063-5.992187-5.628906-11.847656-8.878906-17.542969zm-126.046875-25.238281c-8.6875-.777344-17.300782-2.234375-25.757813-4.367187-3.644531-7.882813-6.664062-16.046876-9.023437-24.40625 4.996094-7.105469 10.535156-13.808594 16.570312-20.050782 8.699219.777344 17.328125 2.238282 25.800782 4.363282 3.632812 7.890624 6.652343 16.046874 9.039062 24.398437-5.015625 7.105469-10.574219 13.8125-16.628906 20.0625zm121.605468-115.394531c-23.105468-2.558594-46.488281-.722656-68.910156 5.414062-.324218.089844-.644531.203125-.957031.335938-20.507813 5.675781-39.835937 14.964844-57.074219 27.4375-7.855468 5.582031-15.230468 11.808594-22.050781 18.617187-4.246094 4.195313-8.242187 8.628907-12.027344 13.167969-.367187-2.574219-.839843-5.144531-1.039062-7.730469v-.082031c-.574219-5.652344-.855469-11.328125-.839844-17.003906 0-13.917969 1.789063-27.777344 5.320313-41.238282 6.398437-24.902343 18.601562-47.9375 35.613281-67.214843 49.003906 2.761719 94.003906 27.957031 121.964843 68.296875zm-143.886718-68.128906c-4.117188 5.550781-7.921875 11.328124-11.390625 17.308593-8.230469 14.253907-14.5 29.554688-18.644531 45.480469-3.898438 14.855469-5.875 30.152344-5.875 45.511719.003906 6.207031.320312 12.410156.957031 18.582031v.117188c.871093 9.375 2.515625 18.664062 4.929687 27.765624 0 .136719.050782.285157.089844.429688 1.492188 5.8125 3.28125 11.546875 5.355469 17.179688-2.433594-.964844-4.910157-1.886719-7.25-2.96875-31.746094-14.292969-58.179688-38.226563-75.542969-68.398438-5.359375-9.28125-9.792969-19.0625-13.234375-29.210938 26.941406-41.289062 71.464844-67.792968 120.605469-71.796874zm-131.234375 91c2.757812 6.324218 5.863281 12.492187 9.308593 18.46875 19.125 33.203124 48.21875 59.542968 83.15625 75.277343 8.710938 4.003907 17.742188 7.261719 27 9.746094h.050782c5.875 1.601563 11.75 2.894531 17.625 3.921875-2.0625 1.625-4.09375 3.304688-6.242188 4.832031-15.925781 11.464844-33.765625 19.992188-52.6875 25.179688-24.730468 6.800781-50.699218 7.816406-75.882812 2.964843-22.710938-43.867187-23.570313-95.839843-2.320313-140.429687zm13.605469 159.175781c6.71875.742187 13.472656 1.113281 20.230468 1.113281 38.316406-.011719 75.667969-12.027344 106.804688-34.359375 7.773437-5.542969 15.074218-11.71875 21.824218-18.46875l.050782-.039063.132812-.128906c4.199219-4.195312 8.269532-8.585937 12.121094-13.210937.386719 2.59375.839844 5.1875 1.082031 7.789062 1.988281 19.550781.453125 39.292969-4.523437 58.300781-6.324219 24.683594-18.375 47.527344-35.167969 66.6875-49.109375-2.4375-94.339844-27.417968-122.554687-67.683593zm144.496093 67.414062c3.910157-5.359375 7.535157-10.925781 10.859375-16.667969 8.230469-14.257812 14.503906-29.554687 18.652344-45.484374 5.476562-20.933594 7.160156-42.675782 4.976562-64.203126-.9375-9.367187-2.585937-18.652343-4.929687-27.773437-.039063-.148437-.058594-.308594-.097656-.460937-1.503907-5.824219-3.304688-11.566407-5.390625-17.207032 20.738281 8.179688 39.625 20.433594 55.546875 36.035156 10.660156 10.46875 19.839843 22.347657 27.28125 35.300782 5.140625 9.023437 9.445312 18.496094 12.867187 28.304687-26.6875 41.203125-70.867187 67.820313-119.765625 72.15625zm0 0"/><path d="m99.191406 89.054688c.152344-6.675782-2.351562-13.144532-6.960937-17.972657-4.613281-4.832031-10.957031-7.632812-17.632813-7.785156-6.671875-.132813-13.128906 2.371094-17.96875 6.964844l-48.574218 46.40625c-10.058594 9.609375-10.421876 25.550781-.816407 35.605469 9.609375 10.058593 25.550781 10.421874 35.605469.816406l13.742188 14.382812c-65.621094 86.679688-54.316407 209.097656 26.074218 282.289063 80.386719 73.195312 203.324219 73.003906 283.488282-.433594 80.164062-73.4375 91.09375-195.886719 25.210937-282.367187l13.25-13.871094c6.5 6.246094 15.84375 8.539062 24.5 6.015625 8.652344-2.523438 15.296875-9.480469 17.421875-18.242188 2.121094-8.761719-.601562-17.988281-7.136719-24.195312l-48.539062-46.40625c-10.066407-9.554688-25.960938-9.164063-35.546875.871093-9.582032 10.035157-9.242188 25.933594.761718 35.546876l-13.351562 13.976562c-25.5625-17.542969-54.707031-29.183594-85.320312-34.070312v-19.4375c13.90625 0 25.179687-11.273438 25.179687-25.179688v-16.789062c0-13.90625-11.273437-25.179688-25.179687-25.179688h-67.148438c-13.90625 0-25.179688 11.273438-25.179688 25.179688v16.789062c0 13.90625 11.273438 25.179688 25.179688 25.179688v19.5625c-30.574219 4.992187-59.65625 16.714843-85.140625 34.332031l-13.707031-14.363281c4.84375-4.597657 7.648437-10.945313 7.789062-17.625zm268.160156-6.378907c1.539063-1.609375 3.652344-2.546875 5.878907-2.597656 2.222656-.050781 4.378906.78125 5.988281 2.320313l48.566406 46.375c3.355469 3.199218 3.476563 8.511718.277344 11.867187-3.203125 3.355469-8.515625 3.476563-11.867188.277344l-48.566406-46.375c-1.609375-1.535157-2.542968-3.648438-2.597656-5.875-.050781-2.226563.785156-4.382813 2.320312-5.992188zm-143.175781 404.839844c-83.8125.089844-158.140625-53.816406-184.097656-133.507813-25.953125-79.695312 2.375-167.035156 70.164063-216.320312 67.789062-49.285156 159.609374-49.300781 227.414062-.035156.074219.085937.101562.183594.175781.261718.515625.414063 1.078125.757813 1.679688 1.03125 12.199219 9.101563 23.296875 19.597657 33.0625 31.273438.402343.921875.972656 1.761719 1.675781 2.476562.179688.167969.414062.226563.597656.378907 46.671875 57.964843 55.910156 137.585937 23.75 204.699219-32.160156 67.113281-100 109.796874-174.421875 109.742187zm144.015625-369.234375 24.273438 23.183594-11.875 12.4375c-7.492188-8.335938-15.632813-16.070313-24.34375-23.125zm-186.335937-76.3125v-16.789062c0-4.636719 3.757812-8.394532 8.394531-8.394532h67.148438c4.636718 0 8.394531 3.757813 8.394531 8.394532v16.789062c0 4.632812-3.757813 8.390625-8.394531 8.390625h-67.148438c-4.636719 0-8.394531-3.757813-8.394531-8.390625zm25.183593 25.179688h33.570313v17.492187c-5.429687-.421875-10.910156-.707031-16.433594-.707031-5.773437 0-11.480469.304687-17.136719.757812zm-139.710937 87.289062-12.347656-12.972656 24.285156-23.183594 12.320313 12.898438c-8.691407 7.097656-16.800782 14.875-24.257813 23.257812zm-47.953125-13.796875c-1.535156-1.609375-2.371094-3.765625-2.316406-5.992187.050781-2.226563.984375-4.339844 2.59375-5.875l48.566406-46.375c1.558594-1.492188 3.632812-2.320313 5.792969-2.316407h.199219c3.394531.078125 6.40625 2.195313 7.628906 5.359375 1.226562 3.167969.425781 6.757813-2.03125 9.101563l-48.554688 46.367187c-1.609375 1.539063-3.765625 2.378906-5.996094 2.328125-2.226562-.050781-4.34375-.984375-5.882812-2.597656zm0 0"/></svg>