<svg height="512pt" viewBox="0 -26 512.00003 512" width="512pt" xmlns="http://www.w3.org/2000/svg"><path d="m445.660156 102.972656-111.621094-16.332031h-.085937c-2.792969-.382813-5.21875-2.121094-6.476563-4.644531l-29.203124-58.410156c-7.183594-14.496094-21.988282-23.6445318-38.167969-23.585938h-93.945313c-16.175781-.0546875-30.976562 9.09375-38.160156 23.585938l-30.523438 61.054687c-.878906 1.75-2.328124 3.144531-4.105468 3.960937l-58.382813 26.523438c-21.292969 9.722656-34.9609372 30.964844-34.988281 54.371094v248.636718c.0273438 23.554688 19.113281 42.640626 42.667969 42.667969h426.664062c23.554688-.027343 42.640625-19.113281 42.667969-42.667969v-239.078124c-.113281-38.332032-28.378906-70.75-66.339844-76.082032zm49.273438 289.5625h-17.066406c-4.714844 0-8.535157-3.820312-8.535157-8.535156v-179.199219c0-4.714843 3.820313-8.535156 8.535157-8.535156h17.066406zm0-213.335937h-17.066406c-14.140626 0-25.601563 11.460937-25.601563 25.601562v179.199219c0 14.140625 11.460937 25.601562 25.601563 25.601562h17.066406v8.53125c0 14.140626-11.460938 25.601563-25.601563 25.601563h-426.664062c-14.140625 0-25.601563-11.460937-25.601563-25.601563v-248.636718c.023438-16.722656 9.796875-31.894532 25.011719-38.832032l58.351563-26.558593c5.332031-2.4375 9.671874-6.621094 12.304687-11.859375l30.53125-61.066406c4.320313-8.679688 13.199219-14.15625 22.894531-14.113282h93.945313c9.707031-.035156 18.589843 5.453125 22.902343 14.148438l29.203126 58.386718c3.773437 7.546876 11.027343 12.75 19.386718 13.90625l111.675782 16.335938c29.554687 4.128906 51.574218 29.367188 51.660156 59.210938zm0 0"/><path d="m153.199219 110.933594h.289062l120.148438-.359375c5.703125-.132813 10.949219-3.128907 13.960937-7.972657 3.007813-4.84375 3.371094-10.878906.964844-16.046874l-18.5-43.035157c-2.792969-5.757812-8.636719-9.40625-15.035156-9.386719h-80.5625c-6.398438-.015624-12.242188 3.632813-15.035156 9.386719l-21.128907 42.976563c-2.65625 5.308594-2.335937 11.621094.851563 16.628906 3.023437 4.851562 8.332031 7.800781 14.046875 7.808594zm.402343-16.886719 20.863282-42.847656 80.101562-.527344 18.894532 42.835937-119.859376.5625zm0 0"/><path d="m59.734375 213.332031c-14.140625 0-25.601563 11.464844-25.601563 25.601563 0 14.136718 11.460938 25.601562 25.601563 25.601562 14.136719 0 25.597656-11.464844 25.597656-25.601562 0-14.136719-11.460937-25.601563-25.597656-25.601563zm0 34.136719c-4.714844 0-8.535156-3.824219-8.535156-8.535156 0-4.710938 3.820312-8.535156 8.535156-8.535156 4.710937 0 8.53125 3.824218 8.53125 8.535156 0 4.710937-3.820313 8.535156-8.53125 8.535156zm0 0"/><path d="m366.933594 213.332031c-14.140625 0-25.601563 11.464844-25.601563 25.601563 0 14.136718 11.460938 25.601562 25.601563 25.601562 14.136718 0 25.601562-11.464844 25.601562-25.601562 0-14.136719-11.464844-25.601563-25.601562-25.601563zm0 34.136719c-4.714844 0-8.535156-3.824219-8.535156-8.535156 0-4.710938 3.820312-8.535156 8.535156-8.535156 4.710937 0 8.53125 3.824218 8.53125 8.535156 0 4.710937-3.820313 8.535156-8.53125 8.535156zm0 0"/><path d="m59.734375 290.132812c-14.140625 0-25.601563 11.460938-25.601563 25.601563 0 14.136719 11.460938 25.597656 25.601563 25.597656 14.136719 0 25.597656-11.460937 25.597656-25.597656 0-14.140625-11.460937-25.601563-25.597656-25.601563zm0 34.132813c-4.714844 0-8.535156-3.820313-8.535156-8.53125 0-4.714844 3.820312-8.535156 8.535156-8.535156 4.710937 0 8.53125 3.820312 8.53125 8.535156 0 4.710937-3.820313 8.53125-8.53125 8.53125zm0 0"/><path d="m59.734375 366.933594c-14.140625 0-25.601563 11.460937-25.601563 25.601562 0 14.136719 11.460938 25.597656 25.601563 25.597656 14.136719 0 25.597656-11.460937 25.597656-25.597656 0-14.140625-11.460937-25.601562-25.597656-25.601562zm0 34.132812c-4.714844 0-8.535156-3.820312-8.535156-8.53125 0-4.714844 3.820312-8.535156 8.535156-8.535156 4.710937 0 8.53125 3.820312 8.53125 8.535156 0 4.710938-3.820313 8.53125-8.53125 8.53125zm0 0"/><path d="m298.667969 213.332031h-170.667969c-14.136719 0-25.601562 11.464844-25.601562 25.601563v162.132812c0 14.140625 11.464843 25.601563 25.601562 25.601563h170.667969c14.136719 0 25.597656-11.460938 25.597656-25.601563v-162.132812c0-14.136719-11.460937-25.601563-25.597656-25.601563zm8.53125 187.734375c0 4.714844-3.820313 8.535156-8.53125 8.535156h-170.667969c-4.710938 0-8.535156-3.820312-8.535156-8.535156v-162.132812c0-4.710938 3.824218-8.535156 8.535156-8.535156h170.667969c4.710937 0 8.53125 3.824218 8.53125 8.535156zm0 0"/><path d="m384 315.734375h-34.132812c-4.714844 0-8.535157 3.820313-8.535157 8.53125 0 4.714844 3.820313 8.535156 8.535157 8.535156h34.132812c4.710938 0 8.535156-3.820312 8.535156-8.535156 0-4.710937-3.824218-8.53125-8.535156-8.53125zm0 0"/><path d="m93.867188 145.066406h-34.132813c-4.714844 0-8.535156 3.820313-8.535156 8.535156 0 4.710938 3.820312 8.53125 8.535156 8.53125h34.132813c4.710937 0 8.53125-3.820312 8.53125-8.53125 0-4.714843-3.820313-8.535156-8.53125-8.535156zm0 0"/><path d="m354.644531 411.050781c-.476562-.324219-.992187-.582031-1.535156-.769531-.484375-.246094-1-.417969-1.535156-.511719-2.8125-.570312-5.722657.292969-7.765625 2.304688-2.460938 2.441406-3.203125 6.128906-1.871094 9.332031 1.328125 3.203125 4.460938 5.28125 7.929688 5.261719.570312-.019531 1.140624-.078125 1.707031-.171875.535156-.09375 1.050781-.265625 1.535156-.511719.542969-.1875 1.058594-.445313 1.535156-.769531l1.28125-1.023438c1.570313-1.625 2.457031-3.796875 2.472657-6.058594-.03125-2.257812-.914063-4.421874-2.472657-6.058593zm0 0"/><path d="m388.777344 411.050781c-.472656-.324219-.992188-.582031-1.535156-.769531-.484376-.246094-1-.417969-1.535157-.511719-2.8125-.570312-5.722656.292969-7.765625 2.304688-2.460937 2.441406-3.203125 6.128906-1.871094 9.332031 1.328126 3.203125 4.464844 5.28125 7.929688 5.261719.570312-.019531 1.140625-.078125 1.707031-.171875.535157-.09375 1.050781-.265625 1.535157-.511719.542968-.1875 1.0625-.445313 1.535156-.769531l1.28125-1.023438c1.570312-1.625 2.457031-3.796875 2.476562-6.058594-.035156-2.257812-.917968-4.421874-2.476562-6.058593zm0 0"/><path d="m343.039062 153.429688c.535157-.09375 1.054688-.265626 1.535157-.511719.546875-.1875 1.0625-.445313 1.539062-.769531l1.277344-1.023438c1.574219-1.625 2.460937-3.796875 2.476563-6.058594-.035157-2.257812-.917969-4.421875-2.476563-6.058594l-1.277344-1.023437c-.476562-.324219-.992187-.582031-1.539062-.769531-.480469-.246094-1-.417969-1.535157-.511719-2.808593-.574219-5.722656.292969-7.765624 2.304687-2.460938 2.441407-3.199219 6.128907-1.871094 9.332032s4.464844 5.28125 7.929687 5.261718c.574219-.019531 1.144531-.078124 1.707031-.171874zm0 0"/><path d="m375.464844 153.601562c.574218-.019531 1.144531-.078124 1.707031-.171874.535156-.09375 1.054687-.265626 1.539063-.511719.542968-.1875 1.058593-.445313 1.535156-.769531l1.277344-1.023438c1.574218-1.625 2.460937-3.796875 2.476562-6.058594-.03125-2.257812-.917969-4.421875-2.476562-6.058594l-1.277344-1.023437c-.476563-.324219-.992188-.582031-1.535156-.769531-.484376-.246094-1.003907-.417969-1.539063-.511719-2.808594-.574219-5.722656.292969-7.765625 2.304687-2.460938 2.441407-3.199219 6.128907-1.871094 9.332032 1.332032 3.203125 4.464844 5.28125 7.929688 5.261718zm0 0"/><path d="m414.378906 137.984375c-.476562-.324219-.992187-.582031-1.535156-.769531-.484375-.246094-1.003906-.417969-1.535156-.511719-2.8125-.574219-5.722656.292969-7.765625 2.304687-2.464844 2.441407-3.203125 6.128907-1.875 9.332032 1.332031 3.203125 4.464843 5.28125 7.933593 5.261718.570313-.019531 1.140626-.078124 1.707032-.171874.53125-.09375 1.050781-.265626 1.535156-.511719.542969-.1875 1.058594-.445313 1.535156-.769531l1.28125-1.023438c1.570313-1.625 2.457032-3.796875 2.472656-6.058594-.03125-2.257812-.917968-4.421875-2.472656-6.058594zm0 0"/></svg>