<?xml version="1.0" encoding="UTF-8"?>
<svg width="125px" height="32px" viewBox="0 0 125 32" version="1.1" xmlns="http://www.w3.org/2000/svg" xmlns:xlink="http://www.w3.org/1999/xlink">
    <!-- Generator: Sketch 51.3 (57544) - http://www.bohemiancoding.com/sketch -->
    <title>logo-prismic</title>
    <desc>Created with Sketch.</desc>
    <defs></defs>
    <g id="Desktop" stroke="none" stroke-width="1" fill="none" fill-rule="evenodd">
        <g id="Desktop-Landscape-Footer" transform="translate(-1048.000000, -815.000000)" fill="#FFFFFF" fill-rule="nonzero">
            <g id="logo-prismic" transform="translate(1047.000000, 815.000000)">
                <path d="M32.590496,16.6198387 L30.2298978,14.3933114 C30.0427644,14.2168061 29.9376347,13.9774143 29.9376347,13.7277992 L29.9376347,11.0039115 C29.9376347,8.48668193 29.6597564,7.57387378 29.13796,6.65361234 C28.6161627,5.7333509 27.8504471,5.01112387 26.8747724,4.51896303 C25.8990978,4.02680136 24.9313244,3.76470588 22.26252,3.76470588 L18.4452453,3.76470588 C18.3350258,3.76470588 18.2456756,3.68043001 18.2456756,3.57647059 C18.2456756,3.52654724 18.2667013,3.47866939 18.304128,3.44336816 L20.6647262,1.21684078 C20.8518587,1.04033548 21.1056658,0.941176471 21.370312,0.941176471 L22.6976969,0.941176471 C26.2561031,0.941176471 27.5464667,1.29063739 28.8473671,1.94685239 C30.1482667,2.6030674 31.1692213,3.5660365 31.8649502,4.79305119 C32.5606791,6.02006672 32.9311831,7.23714426 32.9311831,10.5934498 L32.9311831,16.4867363 C32.9311831,16.5906957 32.841832,16.6749716 32.7316133,16.6749716 C32.6786836,16.6749716 32.6279227,16.65514 32.590496,16.6198387 Z M16.3084293,30.7374858 L18.6690267,28.5109584 C18.85616,28.3344531 19.1099671,28.2352941 19.3746133,28.2352941 L22.26252,28.2352941 C24.9313244,28.2352941 25.8990978,27.9731986 26.8747724,27.481037 C27.8504471,26.9888761 28.6161627,26.2666491 29.13796,25.3463877 C29.6597564,24.4261262 29.9376347,23.5133181 29.9376347,20.9960885 L29.9376347,17.3956166 C29.9376347,17.2916572 30.0269849,17.2073813 30.1372044,17.2073813 C30.1901333,17.2073813 30.2408951,17.227213 30.2783218,17.2625142 L32.6389191,19.4890416 C32.8260524,19.6655469 32.9311831,19.9049387 32.9311831,20.1545537 L32.9311831,21.4065502 C32.9311831,24.7628557 32.5606791,25.9799333 31.8649502,27.2069488 C31.1692213,28.4339635 30.1482667,29.3969326 28.8473671,30.0531476 C27.5464667,30.7093626 26.2561031,31.0588235 22.6976969,31.0588235 L16.4495467,31.0588235 C16.3393271,31.0588235 16.249976,30.9745477 16.249976,30.8705882 C16.249976,30.8206649 16.2710027,30.772787 16.3084293,30.7374858 Z M1.34068711,15.3801613 L3.70128533,17.6066886 C3.88841778,17.7831939 3.99354844,18.0225857 3.99354844,18.2722008 L3.99354844,20.9960885 C3.99354844,23.5133181 4.27142667,24.4261262 4.79322311,25.3463877 C5.31501956,26.2666491 6.08073511,26.9888761 7.05641067,27.481037 C8.03208533,27.9731986 8.99985867,28.2352941 11.6686631,28.2352941 L15.4859378,28.2352941 C15.5961573,28.2352941 15.6855076,28.31957 15.6855076,28.4235294 C15.6855076,28.4734528 15.6644818,28.5213306 15.6270551,28.5566318 L13.2664569,30.7831592 C13.0793236,30.9596645 12.8255173,31.0588235 12.5608711,31.0588235 L11.2334862,31.0588235 C7.67508,31.0588235 6.38471556,30.7093626 5.083816,30.0531476 C3.78291556,29.3969326 2.76196178,28.4339635 2.06623289,27.2069488 C1.370504,25.9799333 1,24.7628557 1,21.4065502 L1,15.5132637 C1,15.4093043 1.08935022,15.3250284 1.19956978,15.3250284 C1.25249956,15.3250284 1.30326044,15.34486 1.34068711,15.3801613 Z M15.2621556,3.48904157 C15.0750231,3.66554688 14.821216,3.76470588 14.5565698,3.76470588 L11.6686631,3.76470588 C8.99985867,3.76470588 8.03208533,4.02680136 7.05641067,4.51896303 C6.08073511,5.01112387 5.31501956,5.7333509 4.79322311,6.65361234 C4.27142667,7.57387378 3.99354844,8.48668193 3.99354844,11.0039115 L3.99354844,14.6043834 C3.99354844,14.7083428 3.90419822,14.7926187 3.79397867,14.7926187 C3.74104889,14.7926187 3.690288,14.772787 3.65286133,14.7374858 L1.29226311,12.5109584 C1.10513067,12.3344531 1,12.0950613 1,11.8454463 L1,10.5934498 C1,7.23714426 1.370504,6.02006672 2.06623289,4.79305119 C2.76196178,3.5660365 3.78291556,2.6030674 5.083816,1.94685239 C6.38471556,1.29063739 7.67508,0.941176471 11.2334862,0.941176471 L17.4816364,0.941176471 C17.591856,0.941176471 17.6812062,1.02545234 17.6812062,1.12941176 C17.6812062,1.17933511 17.6601804,1.22721297 17.6227538,1.2625142 L15.2621556,3.48904157 Z M27.6044782,11.9310967 L24.3856027,9.02946803 C24.1727502,8.82870379 23.9237778,8.68276957 23.6584151,8.59166703 C23.439008,8.51341386 23.2011502,8.47058824 22.952688,8.47058824 L13.4537644,8.47058824 C13.3435458,8.47058824 13.2541947,8.38631237 13.2541947,8.28235294 C13.2541947,8.23240199 13.2752444,8.18449987 13.3127067,8.14919446 L15.6755298,5.92244288 C15.8626382,5.74610991 16.1163182,5.64705882 16.3808187,5.64705882 L23.9505378,5.64705882 C26.1549262,5.64705882 27.9419351,7.33257537 27.9419351,9.41176471 L27.9419351,11.7950151 C27.9419351,11.8989745 27.8525849,11.9832504 27.7423653,11.9832504 C27.691,11.9832504 27.6416124,11.9645699 27.6044782,11.9310967 Z M21.279504,26.0370271 L24.3558542,23.0009675 C24.5687076,22.8002033 24.7234293,22.5653718 24.8200178,22.3150808 C24.9029822,22.1081349 24.9483867,21.883786 24.9483867,21.6494356 L24.9483867,12.6900045 C24.9483867,12.5860451 25.0377378,12.5017692 25.1479573,12.5017692 C25.2009156,12.5017692 25.2517022,12.5216234 25.2891333,12.5569581 L27.6499689,14.7855845 C27.83692,14.9620664 27.9419351,15.2013377 27.9419351,15.4508164 L27.9419351,22.5906121 C27.9419351,24.6698014 26.1549262,26.355318 23.9505378,26.355318 L21.4237796,26.355318 C21.31356,26.355318 21.2242098,26.2710421 21.2242098,26.1670827 C21.2242098,26.1186342 21.2440151,26.0720515 21.279504,26.0370271 Z M6.326704,20.0689033 L9.54557956,22.970532 C9.75843289,23.1712962 10.0074053,23.3172304 10.2727671,23.408333 C10.4921751,23.4865861 10.730032,23.5294118 10.9784942,23.5294118 L20.4774178,23.5294118 C20.5876373,23.5294118 20.6769876,23.6136876 20.6769876,23.7176471 C20.6769876,23.767598 20.6559387,23.8155001 20.6184756,23.8508055 L18.2556533,26.0775571 C18.068544,26.2538901 17.8148649,26.3529412 17.5503636,26.3529412 L9.98064533,26.3529412 C7.77625689,26.3529412 5.98924711,24.6674246 5.98924711,22.5882353 L5.98924711,20.2049849 C5.98924711,20.1010255 6.07859822,20.0167496 6.18881689,20.0167496 C6.24018311,20.0167496 6.28957067,20.0354301 6.326704,20.0689033 Z M12.6516782,5.96534965 L9.575328,9.00140842 C9.36247467,9.20217349 9.20775378,9.43700497 9.11116533,9.687296 C9.02820089,9.89424188 8.98279556,10.1185907 8.98279556,10.3529412 L8.98279556,19.3123723 C8.98279556,19.4163317 8.89344533,19.5006076 8.78322578,19.5006076 C8.73026756,19.5006076 8.67948089,19.4807534 8.64204889,19.4454187 L6.28121422,17.2167923 C6.09426222,17.0403104 5.98924711,16.8010391 5.98924711,16.5515604 L5.98924711,9.41176471 C5.98924711,7.33257537 7.77625689,5.64705882 9.98064533,5.64705882 L12.5074036,5.64705882 C12.6176231,5.64705882 12.7069733,5.73133469 12.7069733,5.83529412 C12.7069733,5.88374254 12.687168,5.93032533 12.6516782,5.96534965 Z M42.0787511,9.62834489 L42.851224,9.62834489 C43.3783244,9.62834489 43.8056249,10.03051 43.8056249,10.5266045 L43.8056249,11.3771177 C43.8056249,11.4034874 43.8283378,11.4248642 43.8563556,11.4248642 C44.2960231,10.6929452 44.8878747,10.1606484 45.6319271,9.82795796 C46.3759804,9.49526756 47.1792071,9.32892528 48.041632,9.32892528 C48.9716987,9.32892528 49.8087458,9.49110965 50.5527982,9.81548256 C51.2968516,10.1398555 51.9309778,10.5848228 52.4551973,11.1503962 C52.979416,11.7159697 53.3768027,12.3813404 53.6473671,13.1465286 C53.9179316,13.9117168 54.0532124,14.7351132 54.0532124,15.6167429 C54.0532124,16.4983718 53.9094764,17.3217682 53.6220018,18.0869563 C53.3345262,18.8521445 52.9329129,19.5175153 52.4171493,20.0830887 C51.9013849,20.648663 51.2799413,21.0936295 50.5527982,21.4180024 C49.825656,21.7423762 49.0308836,21.9045597 48.1684587,21.9045597 C47.5935084,21.9045597 47.0862071,21.8463398 46.6465396,21.7298982 C46.206872,21.6134567 45.8179413,21.4637486 45.4797351,21.2807688 C45.1415298,21.0977891 44.8540587,20.9023364 44.6173147,20.6944042 C44.3805707,20.4864728 44.1861049,20.2827035 44.033912,20.0830887 C43.9918853,20.0830887 43.957816,20.115154 43.957816,20.1547085 L43.957816,26.1978612 C43.957816,26.8033071 43.4363298,27.2941176 42.7930436,27.2941176 L42.0787511,27.2941176 C41.4354649,27.2941176 40.9139787,26.8033071 40.9139787,26.1978612 L40.9139787,10.7246021 C40.9139787,10.1191563 41.4354649,9.62834489 42.0787511,9.62834489 Z M51.0093742,15.6167429 C51.0093742,15.150976 50.9290516,14.7018508 50.7684036,14.269353 C50.6077556,13.8368552 50.3710151,13.4542674 50.0581751,13.121577 C49.7453342,12.7888866 49.3690862,12.5227378 48.9294187,12.3231239 C48.4897502,12.12351 47.990904,12.0237043 47.4328649,12.0237043 C46.8748249,12.0237043 46.3759787,12.12351 45.9363111,12.3231239 C45.4966436,12.5227378 45.1203947,12.7888866 44.8075547,13.121577 C44.4947138,13.4542674 44.2579733,13.8368552 44.0973253,14.269353 C43.9366782,14.7018508 43.8563556,15.150976 43.8563556,15.6167429 C43.8563556,16.082509 43.9366782,16.5316342 44.0973253,16.964132 C44.2579733,17.3966298 44.4947138,17.7792176 44.8075547,18.111908 C45.1203947,18.4445984 45.4966436,18.7107472 45.9363111,18.9103611 C46.3759787,19.109975 46.8748249,19.2097807 47.4328649,19.2097807 C47.990904,19.2097807 48.4897502,19.109975 48.9294187,18.9103611 C49.3690862,18.7107472 49.7453342,18.4445984 50.0581751,18.111908 C50.3710151,17.7792176 50.6077556,17.3966298 50.7684036,16.964132 C50.9290516,16.5316342 51.0093742,16.082509 51.0093742,15.6167429 Z M58.4393796,9.62834489 L59.3110222,9.62834489 C59.8674062,9.62834489 60.3184453,10.0528523 60.3184453,10.5765078 L60.3184453,11.4769242 C60.3184453,11.5032939 60.3411582,11.5246707 60.369176,11.5246707 C60.7073813,10.8260208 61.1893173,10.2854074 61.8149982,9.9028137 C62.4406791,9.52021919 63.1593564,9.32892528 63.9710507,9.32892528 C64.157064,9.32892528 64.3388462,9.34555942 64.5164044,9.37882855 C64.8334373,9.43823059 65.0617538,9.70011357 65.0617538,10.004352 L65.0617644,11.6470948 C65.0617644,11.9774603 64.7772116,12.2452748 64.4261973,12.2452748 C64.3884009,12.2452748 64.35068,12.2421015 64.3134818,12.2357936 C64.0682827,12.194207 63.8273147,12.1734141 63.5905707,12.1734141 C62.8803387,12.1734141 62.309624,12.3023293 61.8784116,12.5601648 C61.4471991,12.8179995 61.1174533,13.1132578 60.8891644,13.4459482 C60.6608756,13.7786386 60.5086853,14.111324 60.4325893,14.4440144 C60.3564924,14.7767048 60.3184453,15.0262195 60.3184453,15.1925643 L60.3184453,20.5088837 C60.3184453,21.1143295 59.7969582,21.6051401 59.153672,21.6051401 L58.4393796,21.6051401 C57.7960933,21.6051401 57.2746071,21.1143295 57.2746071,20.5088837 L57.2746071,10.7246021 C57.2746071,10.1191563 57.7960933,9.62834489 58.4393796,9.62834489 Z M68.7376978,9.62834489 L69.4519902,9.62834489 C70.0952764,9.62834489 70.6167636,10.1191563 70.6167636,10.7246021 L70.6167636,20.5088837 C70.6167636,21.1143295 70.0952764,21.6051401 69.4519902,21.6051401 L68.7376978,21.6051401 C68.0944116,21.6051401 67.5729253,21.1143295 67.5729253,20.5088837 L67.5729253,10.7246021 C67.5729253,10.1191563 68.0944116,9.62834489 68.7376978,9.62834489 Z M67.1417147,5.5612252 C67.1417147,5.07882416 67.3234978,4.65880847 67.6870693,4.30116643 C68.0506409,3.94352439 68.5114391,3.76470588 69.0694791,3.76470588 C69.6275182,3.76470588 70.0967724,3.9352069 70.4772542,4.2762148 C70.857736,4.61722269 71.0479733,5.04555503 71.0479733,5.5612252 C71.0479733,6.07689537 70.857736,6.50522771 70.4772542,6.84623561 C70.0967724,7.1872435 69.6275182,7.35774452 69.0694791,7.35774452 C68.5114391,7.35774452 68.0506409,7.17892601 67.6870693,6.82128397 C67.3234978,6.46364193 67.1417147,6.04362625 67.1417147,5.5612252 Z M80.2556809,12.3653647 C79.6380898,11.9379777 79.0884756,11.7242838 78.6068373,11.7242838 C78.2009902,11.7242838 77.8036044,11.8240895 77.4146676,12.0237043 C77.0257307,12.2233182 76.8312658,12.5476869 76.8312658,12.9968188 C76.8312658,13.3627784 76.9919111,13.6289263 77.3132062,13.7952719 C77.6345022,13.9616167 78.0403431,14.1030082 78.5307413,14.2194497 C79.0211404,14.3358912 79.5495787,14.4564898 80.1160738,14.5812488 C80.6825689,14.7060078 81.211008,14.8973018 81.7014062,15.1551373 C82.1918044,15.4129719 82.5976453,15.7664502 82.9189413,16.2155821 C83.2402364,16.664714 83.4008827,17.2801824 83.4008827,18.0620047 C83.4008827,18.7772896 83.244464,19.3802817 82.931624,19.8710003 C82.6187831,20.361718 82.2129422,20.756782 81.7140889,21.0562033 C81.2152347,21.3556246 80.652976,21.5718701 80.0272951,21.7049466 C79.4016142,21.8380231 78.7759431,21.9045597 78.1502622,21.9045597 C77.2032853,21.9045597 76.3324187,21.7714857 75.5376347,21.5053335 C75.2264018,21.4011098 74.8529351,21.1916649 74.4172347,20.8769983 L74.4172489,20.8769799 C73.9069111,20.5084101 73.8106596,19.8202504 74.2022649,19.3399324 C74.2356204,19.299021 74.2720018,19.260375 74.3111369,19.224284 L74.6268773,18.933125 C75.0625929,18.5313029 75.7539049,18.5139551 76.211752,18.893353 C76.3963564,19.0463272 76.5563582,19.1642788 76.6917564,19.2472086 C77.1398791,19.5216782 77.6852276,19.658911 78.3278196,19.658911 C78.5476533,19.658911 78.7759387,19.6339593 79.0126827,19.5840561 C79.2494267,19.5341519 79.4692569,19.4509812 79.6721804,19.3345397 C79.875104,19.2180974 80.0399769,19.072548 80.1668044,18.8978857 C80.293632,18.7232226 80.3570444,18.5194533 80.3570444,18.2865694 C80.3570444,17.8707066 80.1963991,17.5629729 79.8751031,17.3633581 C79.553808,17.1637442 79.1479671,17.0015598 78.657568,16.8768008 C78.1671698,16.7520427 77.6387307,16.635602 77.0722364,16.527478 C76.5057413,16.4193539 75.9773022,16.2446942 75.486904,16.0034936 C74.9965049,15.7622923 74.590664,15.425449 74.2693689,14.9929512 C73.9480729,14.5604534 73.7874276,13.9616201 73.7874276,13.1964319 C73.7874276,12.5310511 73.9269351,11.9530098 74.2059556,11.4622921 C74.4849751,10.9715735 74.8527689,10.568192 75.3093467,10.2521366 C75.7659244,9.93608031 76.290136,9.70320063 76.8819964,9.55348999 C77.4738569,9.40377935 78.0741627,9.32892528 78.6829333,9.32892528 C79.4946276,9.32892528 80.2978551,9.46615801 81.0926382,9.74062766 C81.3804311,9.84001339 81.7014818,10.0240523 82.0557902,10.2927435 L82.0557751,10.2927611 C82.5566782,10.6726233 82.6355556,11.362739 82.231952,11.8341773 C82.1983876,11.8733821 82.1619947,11.910364 82.1230293,11.9448613 L81.7436871,12.2806597 C81.3343484,12.6430561 80.7084436,12.6786861 80.2556809,12.3653647 Z M87.1782827,9.62834489 L87.7403831,9.62834489 C88.3836693,9.62834489 88.9051556,10.1191563 88.9051556,10.7246021 L88.9051556,11.4997191 C89.2264516,10.9341457 89.6618844,10.4309593 90.2622,9.990144 C90.8625156,9.54932957 91.6699698,9.32892528 92.6845876,9.32892528 C94.5954516,9.32892528 95.863704,10.0691501 96.4893849,11.5496224 C96.9290524,10.784435 97.4786293,10.2230279 98.1381307,9.86538583 C98.797632,9.50774379 99.5839493,9.32892528 100.497105,9.32892528 C101.308799,9.32892528 101.993656,9.46199927 102.551696,9.72815142 C103.109735,9.99430442 103.562079,10.3602581 103.90874,10.826025 C104.255401,11.2917911 104.504824,11.8365632 104.657017,12.4603583 C104.80921,13.0841525 104.885305,13.753682 104.885305,14.4689661 L104.885305,20.5088837 C104.885305,21.1143295 104.363818,21.6051401 103.720532,21.6051401 L103.006239,21.6051401 C102.362953,21.6051401 101.841467,21.1143295 101.841467,20.5088837 L101.841467,14.8182898 C101.841467,14.4523302 101.807647,14.098852 101.740005,13.7578441 C101.672364,13.4168362 101.553994,13.1174199 101.384891,12.8595844 C101.215788,12.6017498 100.987502,12.3979796 100.700028,12.248269 C100.412553,12.0985583 100.040532,12.0237043 99.5839538,12.0237043 C99.1104658,12.0237043 98.7088516,12.1110337 98.3791013,12.2856968 C98.0493502,12.4603591 97.7787893,12.6932388 97.5674107,12.9843426 C97.356032,13.2754472 97.2038418,13.6081326 97.1108356,13.9824088 C97.0178284,14.3566858 96.9713262,14.7351157 96.9713262,15.1177094 L96.9713262,20.5088837 C96.9713262,21.1143295 96.44984,21.6051401 95.8065538,21.6051401 L95.0922613,21.6051401 C94.4489751,21.6051401 93.927488,21.1143295 93.927488,20.5088837 L93.927488,14.4689661 C93.927488,13.7204129 93.7668427,13.1257374 93.4455476,12.684923 C93.1242516,12.2441085 92.5915858,12.0237043 91.8475324,12.0237043 C91.3402231,12.0237043 90.9132453,12.1068758 90.566584,12.2732206 C90.2199227,12.4395662 89.9324524,12.6641284 89.7041636,12.9469156 C89.4758747,13.2297019 89.3110018,13.5540706 89.2095396,13.9200301 C89.1080782,14.2859896 89.0573476,14.6685775 89.0573476,15.0678061 L89.0573476,20.5088837 C89.0573476,21.1143295 88.5358613,21.6051401 87.8925751,21.6051401 L87.1782827,21.6051401 C86.5349964,21.6051401 86.0135102,21.1143295 86.0135102,20.5088837 L86.0135102,10.7246021 C86.0135102,10.1191563 86.5349964,9.62834489 87.1782827,9.62834489 Z M109.804144,9.62834489 L110.518436,9.62834489 C111.161723,9.62834489 111.683209,10.1191563 111.683209,10.7246021 L111.683209,20.5088837 C111.683209,21.1143295 111.161723,21.6051401 110.518436,21.6051401 L109.804144,21.6051401 C109.160858,21.6051401 108.639372,21.1143295 108.639372,20.5088837 L108.639372,10.7246021 C108.639372,10.1191563 109.160858,9.62834489 109.804144,9.62834489 Z M108.208161,5.5612252 C108.208161,5.07882416 108.389944,4.65880847 108.753516,4.30116643 C109.117086,3.94352439 109.577885,3.76470588 110.135925,3.76470588 C110.693964,3.76470588 111.163219,3.9352069 111.5437,4.2762148 C111.924181,4.61722269 112.11442,5.04555503 112.11442,5.5612252 C112.11442,6.07689537 111.924181,6.50522771 111.5437,6.84623561 C111.163219,7.1872435 110.693964,7.35774452 110.135925,7.35774452 C109.577885,7.35774452 109.117086,7.17892601 108.753516,6.82128397 C108.389944,6.46364193 108.208161,6.04362625 108.208161,5.5612252 Z M123.098222,12.5656872 C122.972968,12.4734285 122.862845,12.4008918 122.767852,12.3480755 C122.378916,12.1318266 121.98153,12.0237043 121.575683,12.0237043 C121.017643,12.0237043 120.518796,12.12351 120.079129,12.3231239 C119.639461,12.5227378 119.263212,12.7888866 118.950372,13.121577 C118.637532,13.4542674 118.400791,13.8368552 118.240143,14.269353 C118.079496,14.7018508 117.999172,15.150976 117.999172,15.6167429 C117.999172,16.082509 118.079496,16.5316342 118.240143,16.964132 C118.400791,17.3966298 118.637532,17.7792176 118.950372,18.111908 C119.263212,18.4445984 119.639461,18.7107472 120.079129,18.9103611 C120.518796,19.109975 121.017643,19.2097807 121.575683,19.2097807 C122.049171,19.2097807 122.488832,19.1141338 122.894679,18.9228373 C122.976742,18.8841562 123.065805,18.8315758 123.161869,18.7650953 L123.16188,18.7651087 C123.646283,18.4298809 124.322189,18.4967596 124.721928,18.9194717 L125.18454,19.4087161 C125.591756,19.8393332 125.550966,20.4991122 125.093436,20.8823734 C125.037314,20.9293846 124.976262,20.9709068 124.911221,21.0063 C124.513829,21.2225489 124.112216,21.3972087 123.706369,21.5302852 C123.300522,21.6633608 122.911591,21.7590086 122.539564,21.8172294 C122.167538,21.8754501 121.846247,21.9045597 121.575683,21.9045597 C120.662526,21.9045597 119.800115,21.7548516 118.98842,21.4554303 C118.176726,21.156009 117.474959,20.7318346 116.883099,20.1828953 C116.291238,19.6339568 115.821985,18.9727439 115.475324,18.1992391 C115.128663,17.4257334 114.955335,16.56491 114.955335,15.6167429 C114.955335,14.668575 115.128663,13.8077515 115.475324,13.0342459 C115.821985,12.260741 116.291238,11.599529 116.883099,11.0505897 C117.474959,10.5016504 118.176726,10.077476 118.98842,9.77805469 C119.800115,9.47863341 120.662526,9.32892528 121.575683,9.32892528 C122.353556,9.32892528 123.135645,9.47447467 123.921974,9.76557929 C124.221628,9.87651346 124.575154,10.0748641 124.982552,10.3606329 C125.498346,10.7224345 125.604849,11.4092708 125.220434,11.8947238 C125.191925,11.9307252 125.161093,11.9650443 125.128113,11.9974868 L124.65769,12.4602428 C124.243877,12.8673071 123.56961,12.9128985 123.098222,12.5656872 Z" id="Logo-White-Version"></path>
            </g>
        </g>
    </g>
</svg>