<?xml version="1.0" encoding="UTF-8"?>
<svg width="121px" height="31px" viewBox="0 0 121 31" version="1.1" xmlns="http://www.w3.org/2000/svg" xmlns:xlink="http://www.w3.org/1999/xlink">
    <!-- Generator: Sketch 51.3 (57544) - http://www.bohemiancoding.com/sketch -->
    <title>logo-netlify</title>
    <desc>Created with Sketch.</desc>
    <defs></defs>
    <g id="Desktop" stroke="none" stroke-width="1" fill="none" fill-rule="evenodd">
        <g id="Desktop-Landscape-Footer" transform="translate(-891.000000, -815.000000)" fill="#FFFFFF">
            <g id="logo-netlify" transform="translate(891.000000, 814.000000)">
                <path d="M44.5177181,10.9827143 L44.6184295,12.7097143 C45.7671946,11.374 47.2754094,10.7061429 49.142255,10.7061429 C52.377302,10.7061429 54.0238926,12.4881429 54.0812081,16.0521429 L54.0812081,25.927 L50.5931544,25.927 L50.5931544,16.2454286 C50.5931544,15.2970714 50.3802685,14.5954286 49.9544966,14.1389286 C49.5287248,13.6832143 48.8319329,13.4553571 47.8649396,13.4553571 C46.4574362,13.4553571 45.4085638,14.0682143 44.7207785,15.2923571 L44.7207785,25.927 L41.2310872,25.927 L41.2310872,10.9827143 L44.5193557,10.9827143 L44.5177181,10.9827143 Z M64.4782282,26.2035714 C62.2674899,26.2035714 60.4743356,25.5341429 59.1012215,24.1945 C57.7272886,22.8548571 57.0403221,21.0705 57.0403221,18.8422143 L57.0403221,18.4281429 C57.0403221,16.9368571 57.3391812,15.6035 57.9377181,14.4296429 C58.5354362,13.2557857 59.3763356,12.342 60.4579597,11.6875 C61.5395839,11.0345714 62.7456644,10.7077143 64.0770201,10.7077143 C66.1919597,10.7077143 67.8270872,11.3567143 68.9799463,12.6547143 C70.134443,13.9535 70.7108725,15.7897143 70.7108725,18.1657143 L70.7108725,19.5195 L60.5578523,19.5195 C60.6642953,20.7530714 61.0917047,21.7289286 61.8433557,22.4470714 C62.5950067,23.1652143 63.5407114,23.5242857 64.679651,23.5242857 C66.2779329,23.5242857 67.5798121,22.9035714 68.5852886,21.6597857 L70.4660537,23.3867857 C69.8437718,24.2793571 69.0135168,24.9723571 67.9752886,25.465 C66.9362416,25.9576429 65.7711007,26.2035714 64.479047,26.2035714 L64.4782282,26.2035714 Z M64.0622819,13.4011429 C63.1042953,13.4011429 62.3321745,13.7232857 61.7434631,14.3675714 C61.1539329,15.0118571 60.7789262,15.9099286 60.6159866,17.061 L67.2645772,17.061 L67.2645772,16.8119286 C67.1876107,15.6883571 66.8764698,14.8397857 66.3311544,14.2638571 C65.7850201,13.6887143 65.0292752,13.4011429 64.0622819,13.4011429 Z M77.7893289,7.35114286 L77.7893289,10.9835 L80.5322819,10.9835 L80.5322819,13.4695 L77.7893289,13.4695 L77.7893289,21.8114286 C77.7893289,22.3818571 77.9072349,22.7935714 78.1414094,23.0473571 C78.3755839,23.3003571 78.7948054,23.4268571 79.398255,23.4268571 C79.809099,23.425756 80.2184505,23.3793565 80.618255,23.2885714 L80.618255,25.8853571 C79.8240268,26.0975 79.0584564,26.2027857 78.3207248,26.2027857 C75.6408188,26.2027857 74.3004564,24.7806429 74.3004564,21.9355714 L74.3004564,13.4687143 L71.7425503,13.4687143 L71.7425503,10.9827143 L74.2988188,10.9827143 L74.2988188,7.35035714 L77.7876913,7.35035714 L77.7893289,7.35114286 Z M86.9082148,25.9277857 L83.4185235,25.9277857 L83.4185235,4.7135 L86.9082148,4.7135 L86.9082148,25.9277857 Z M94.4181745,25.9277857 L90.9284832,25.9277857 L90.9284832,10.9835 L94.4181745,10.9835 L94.4181745,25.9277857 Z M90.7131409,7.10207143 C90.7131409,6.58742857 90.8826309,6.15921429 91.2224295,5.81821429 C91.563047,5.478 92.0485906,5.3075 92.6798792,5.3075 C93.3119866,5.3075 93.7999866,5.478 94.1455168,5.81821429 C94.4894094,6.15921429 94.6613557,6.58742857 94.6613557,7.10285714 C94.6613557,7.60885714 94.4894094,8.03 94.1455168,8.36628571 C93.7999866,8.70257143 93.3119866,8.87071429 92.6798792,8.87071429 C92.0485906,8.87071429 91.563047,8.70257143 91.2224295,8.36628571 C90.8826309,8.03078571 90.7131409,7.60885714 90.7131409,7.10285714 L90.7131409,7.10207143 Z M99.4439195,25.9277857 L99.4439195,13.4687143 L97.0743356,13.4687143 L97.0743356,10.9827143 L99.4439195,10.9827143 L99.4439195,9.61557143 C99.4439195,7.95771429 99.922094,6.67857143 100.879262,5.77578571 C101.837248,4.87378571 103.176792,4.42278571 104.89953,4.42278571 C105.512805,4.42278571 106.163745,4.50528571 106.853168,4.67107143 L106.767195,7.29535714 C106.326856,7.21693078 105.87957,7.18008816 105.431745,7.18535714 C103.765503,7.18535714 102.932792,8.00878571 102.932792,9.65721429 L102.932792,10.9827143 L106.091691,10.9827143 L106.091691,13.4687143 L102.932792,13.4687143 L102.932792,25.927 L99.4439195,25.927 L99.4439195,25.9277857 Z M114.075732,21.1215714 L117.234631,10.9835 L120.953584,10.9835 L114.779893,28.193 C113.831732,30.7065 112.223624,31.9636429 109.954752,31.9636429 C109.447101,31.9636429 108.887047,31.8803571 108.274591,31.7145714 L108.274591,29.1177857 L108.935356,29.1594286 C109.815557,29.1594286 110.478779,29.0054286 110.924201,28.6966429 C111.368805,28.3886429 111.720886,27.8708571 111.979624,27.1432857 L112.481544,25.8586429 L107.025114,10.9835 L110.787463,10.9835 L114.075732,21.1215714 Z" id="Shape"></path>
                <path d="M23.652443,11.8917857 L23.6409799,11.8870714 C23.6344295,11.8847143 23.6278792,11.8823571 23.6221477,11.8768571 C23.603107,11.8572315 23.5946374,11.8302368 23.5992215,11.8037857 L24.2321477,8.0905 L27.2002685,10.9395 L24.1134228,12.1997857 C24.1048443,12.2031053 24.0956499,12.2047095 24.0864027,12.2045 L24.0741208,12.2045 C24.0700268,12.2021429 24.0659329,12.199 24.057745,12.1911429 C23.9428678,12.0684029 23.8054915,11.9669364 23.652443,11.8917857 Z M27.957651,11.6655 L31.1312886,14.7109286 C31.7904161,15.3442143 32.1203893,15.6600714 32.2407517,16.0262143 C32.2587651,16.0804286 32.2735034,16.1346429 32.2849664,16.1904286 L24.7004966,13.1080714 C24.696421,13.1064565 24.6923268,13.1048849 24.6882148,13.1033571 C24.6579195,13.0915714 24.6227114,13.0782143 24.6227114,13.0483571 C24.6227114,13.0185 24.6587383,13.0043571 24.6890336,12.9925714 L24.6988591,12.9886429 L27.957651,11.6655 Z M32.1555973,17.1678571 C31.9918389,17.4632857 31.6725101,17.7697143 31.1321074,18.2890714 L27.5539866,21.7218571 L22.9261745,20.7970714 L22.9016107,20.7923571 C22.8606711,20.7860714 22.8172752,20.779 22.8172752,20.7436429 C22.7817468,20.3733285 22.5874975,20.0338206 22.2809664,19.8062857 C22.2621342,19.7882143 22.267047,19.7599286 22.2727785,19.734 C22.2727785,19.7300714 22.2727785,19.7261429 22.2744161,19.723 L23.1447919,14.5954286 L23.1480671,14.5781429 C23.1529799,14.5388571 23.160349,14.4932857 23.1971946,14.4932857 C23.573973,14.4483078 23.9161623,14.2600638 24.1469933,13.9707857 C24.1543624,13.9629286 24.1592752,13.9542857 24.1691007,13.9495714 C24.195302,13.9377857 24.2264161,13.9495714 24.2534362,13.9605714 L32.1547785,17.1678571 L32.1555973,17.1678571 Z M26.7311007,22.5115 L20.8472617,28.1576429 L21.8543758,22.2176429 L21.8560134,22.2097857 C21.8568322,22.2019286 21.8584698,22.1940714 21.8609262,22.187 C21.8691141,22.1681429 21.8904027,22.1602857 21.9108725,22.1524286 L21.920698,22.1485 C22.1412116,22.0582172 22.336244,21.9189966 22.4897584,21.7422857 C22.5094094,21.7202857 22.5331544,21.6990714 22.5634497,21.6951429 C22.5713126,21.6939111 22.5793317,21.6939111 22.5871946,21.6951429 L26.7302819,22.5122857 L26.7311007,22.5115 Z M19.6018792,29.3527143 L18.9386577,29.9891429 L11.6063758,19.8204286 C11.6037243,19.8167091 11.6009945,19.8130417 11.5981879,19.8094286 C11.5867248,19.7945 11.574443,19.7795714 11.5768993,19.7622857 C11.5768993,19.7497143 11.585906,19.7387143 11.5949128,19.7292857 L11.6031007,19.7190714 C11.6252081,19.6876429 11.6440403,19.6562143 11.6645101,19.6224286 L11.6808859,19.5949286 L11.6833423,19.5925714 C11.6948054,19.5737143 11.7054497,19.5556429 11.7251007,19.5454286 C11.7422953,19.5375714 11.7660403,19.5407143 11.7848725,19.5446429 L19.9081074,21.1522143 C19.9308209,21.1556037 19.9522474,21.1645315 19.9703356,21.1781429 C19.9809799,21.1883571 19.9834362,21.1993571 19.9858926,21.2119286 C20.1007533,21.6289545 20.412142,21.9704923 20.8276107,22.1351429 C20.8505369,22.1461429 20.8407114,22.1705 20.8300671,22.1964286 C20.8247564,22.2077924 20.820642,22.2196369 20.8177852,22.2317857 C20.7154362,22.8289286 19.8376913,27.9659286 19.6018792,29.3527143 Z M18.2164832,30.6813571 C17.7276644,31.1457143 17.4394497,31.3916429 17.1135705,31.4906429 C16.7922569,31.5881423 16.4474209,31.5881423 16.1261074,31.4906429 C15.7445503,31.3743571 15.4145772,31.0585 14.7554497,30.4252143 L7.39205369,23.3592857 L9.31539597,20.4969286 C9.32440268,20.4827857 9.3334094,20.4702143 9.34814765,20.46 C9.36861745,20.4458571 9.39809396,20.4521429 9.42265772,20.46 C9.86411796,20.5878054 10.3381028,20.5647581 10.7638389,20.3947857 C10.7859463,20.3869286 10.8080537,20.3814286 10.8252483,20.3963571 C10.8338467,20.4038885 10.8415369,20.4123223 10.8481745,20.4215 L18.2164832,30.6813571 Z M6.68134228,22.6780714 L4.99299329,21.0571429 L8.32875168,19.6915714 C8.33727815,19.6880036 8.34647019,19.6861326 8.35577181,19.6860714 C8.38361074,19.6860714 8.39998658,19.7127857 8.41472483,19.7371429 C8.44824781,19.7866337 8.4837554,19.8348603 8.52116779,19.8817143 L8.53181208,19.8942857 C8.54163758,19.9076429 8.53508725,19.921 8.52526174,19.9335714 L6.68297987,22.6780714 L6.68134228,22.6780714 Z M4.24461745,20.3397857 L2.10757047,18.2890714 C1.74402685,17.9402143 1.48037584,17.6872143 1.29696644,17.4695714 L7.79489933,18.7628571 C7.80306187,18.7643088 7.81125113,18.7656186 7.81946309,18.7667857 C7.85958389,18.7730714 7.90379866,18.7801429 7.90379866,18.8162857 C7.90379866,18.8555714 7.85548993,18.8736429 7.81455034,18.8885714 L7.79571812,18.8964286 L4.24461745,20.3397857 Z M0.925234899,16.4151429 C0.932640182,16.2830402 0.957399796,16.1523637 0.998926174,16.0262143 C1.12010738,15.6600714 1.44926174,15.3442143 2.10920805,14.7109286 L4.84397315,12.0866429 C6.10313854,13.8402626 7.36571793,15.5916228 8.6317047,17.3407143 C8.65381208,17.369 8.67837584,17.4004286 8.65299329,17.424 C8.53344966,17.5505 8.41390604,17.6887857 8.32957047,17.8388571 C8.32042132,17.8581472 8.30633844,17.8749045 8.28863087,17.8875714 C8.27798658,17.8938571 8.26652349,17.8915 8.25424161,17.8891429 L8.25260403,17.8891429 L0.924416107,16.4143571 L0.925234899,16.4151429 Z M5.57597315,11.3842143 L9.25234899,7.85557143 C9.59869799,8.00092857 10.8571812,8.51085714 11.9813826,8.96657143 C12.8329262,9.31228571 13.6091409,9.62657143 13.8531409,9.72871429 C13.8777047,9.73814286 13.8998121,9.74757143 13.9104564,9.77114286 C13.9170067,9.78528571 13.9137315,9.80335714 13.9104564,9.81828571 C13.7922153,10.3356944 13.9531501,10.8754728 14.3386846,11.2545714 C14.3632483,11.2781429 14.3386846,11.3119286 14.317396,11.341 L14.3059329,11.3575 L10.5722416,16.907 C10.5624161,16.9227143 10.5534094,16.9360714 10.5370336,16.9462857 C10.5173826,16.9580714 10.4895436,16.9525714 10.4666174,16.9470714 C10.3214006,16.9105623 10.1721154,16.8910396 10.0220134,16.8889286 C9.88773154,16.8889286 9.74198658,16.9125 9.59460403,16.9384286 L9.59378523,16.9384286 C9.5774094,16.9407857 9.56267114,16.9439286 9.54957047,16.9345 C9.5351011,16.9231529 9.52265603,16.9096182 9.51272483,16.8944286 L5.57597315,11.3842143 Z M9.99581208,7.14292857 L14.7562685,2.57478571 C15.415396,1.94228571 15.7453691,1.62564286 16.1269262,1.51014286 C16.4482397,1.41264342 16.7930757,1.41264342 17.1143893,1.51014286 C17.4959463,1.62564286 17.8259195,1.94228571 18.485047,2.57478571 L19.5167248,3.56478571 L16.1302013,8.59571429 C16.1218257,8.61036242 16.1103986,8.62320005 16.0966309,8.63342857 C16.0761611,8.64678571 16.0475034,8.64128571 16.0229396,8.63342857 C15.4810182,8.4756148 14.8928564,8.58437961 14.4508591,8.92414286 C14.4287517,8.94614286 14.396,8.93357143 14.3681611,8.92178571 C13.9260134,8.73714286 10.4870872,7.3425 9.99499329,7.14214286 L9.99581208,7.14292857 Z M20.2356242,4.25464286 L23.3617718,7.2545 L22.6084832,11.7315 L22.6084832,11.7432857 C22.6078107,11.753489 22.6056044,11.7635454 22.6019329,11.7731429 C22.593745,11.7888571 22.5773691,11.792 22.5609933,11.7967143 C22.3999362,11.8435283 22.2482478,11.9160429 22.1122953,12.0112143 C22.1064505,12.0152113 22.100972,12.0196799 22.0959195,12.0245714 C22.0869128,12.034 22.077906,12.0426429 22.0631678,12.0442143 C22.0511724,12.0445699 22.0392182,12.0427025 22.0279597,12.0387143 L17.2642282,10.0964286 L17.2552215,10.0925 C17.2249262,10.0807143 17.1888993,10.0665714 17.1888993,10.0367143 C17.1608993,9.78197334 17.0741968,9.53639939 16.9350738,9.31778571 C16.9121477,9.28164286 16.8867651,9.24392857 16.9064161,9.207 L20.2356242,4.25464286 Z M17.0144966,11.0157143 L21.4801879,12.8307143 C21.5047517,12.8417143 21.5317718,12.8519286 21.5424161,12.8762857 C21.5466774,12.8909343 21.5466774,12.9064229 21.5424161,12.9210714 C21.5293154,12.9839286 21.5178523,13.0554286 21.5178523,13.1277143 L21.5178523,13.2479286 C21.5178523,13.2777857 21.4859195,13.2903571 21.456443,13.3021429 L21.4474362,13.3052857 C20.74,13.5952143 11.5154899,17.3697857 11.5015705,17.3697857 C11.487651,17.3697857 11.4729128,17.3697857 11.4589933,17.3564286 C11.4344295,17.3328571 11.4589933,17.2998571 11.4811007,17.27 C11.4850091,17.2648211 11.4888307,17.2595824 11.4925638,17.2542857 L15.1623893,11.8014286 L15.1689396,11.792 C15.1902282,11.759 15.2147919,11.7220714 15.254094,11.7220714 L15.2909396,11.7275714 C15.3744564,11.7385714 15.4481477,11.7487857 15.5226577,11.7487857 C16.0794362,11.7487857 16.5952752,11.4887143 16.9064161,11.044 C16.9138292,11.0321244 16.9232354,11.0215053 16.934255,11.0125714 C16.9563624,10.9968571 16.9891141,11.0047143 17.0144966,11.0157143 Z M11.9003221,18.2325 L21.9550872,14.1177143 C21.9550872,14.1177143 21.9698255,14.1177143 21.983745,14.1310714 C22.038604,14.1837143 22.0852752,14.2190714 22.1303087,14.2520714 L22.1524161,14.2654286 C22.1728859,14.2764286 22.1933557,14.289 22.1949933,14.3094286 C22.1949933,14.3172857 22.1949933,14.322 22.1933557,14.3290714 L21.3328054,19.4071429 L21.3295302,19.4275714 C21.3237987,19.4668571 21.3180671,19.5116429 21.2795839,19.5116429 C20.8133588,19.5418405 20.3926943,19.7908638 20.1553826,20.1771429 L20.1512886,20.1834286 C20.1398255,20.2015 20.1291812,20.2187857 20.110349,20.2282143 C20.0931544,20.2360714 20.071047,20.2329286 20.0530336,20.229 L12.034604,18.6418571 C12.0264161,18.6402857 11.9101477,18.2340714 11.9011409,18.2332857 L11.9003221,18.2325 Z" id="Shape"></path>
            </g>
        </g>
    </g>
</svg>