<?xml version="1.0" encoding="UTF-8"?>
<svg width="94px" height="25px" viewBox="0 0 94 25" version="1.1" xmlns="http://www.w3.org/2000/svg" xmlns:xlink="http://www.w3.org/1999/xlink">
    <!-- Generator: Sketch 51.3 (57544) - http://www.bohemiancoding.com/sketch -->
    <title>logo-github</title>
    <desc>Created with Sketch.</desc>
    <defs></defs>
    <g id="Desktop" stroke="none" stroke-width="1" fill="none" fill-rule="evenodd">
        <g id="Desktop-Landscape-Footer" transform="translate(-1198.000000, -818.000000)" fill="#FFFFFE">
            <g id="GitHub_Logo" transform="translate(1198.000000, 818.000000)">
                <path d="M18.2233113,10.6725 L10.3855758,10.6725 C10.1833333,10.6725 10.019416,10.831 10.019416,11.02625 L10.019416,14.72575 C10.019416,14.921 10.1833333,15.08 10.3855758,15.08 L13.4430358,15.08 L13.4430358,19.67625 C13.4430358,19.67625 12.756551,19.90225 10.8584242,19.90225 C8.6192562,19.90225 5.49110193,19.11225 5.49110193,12.4715 C5.49110193,5.829 8.74847383,4.95525 11.8064518,4.95525 C14.45373,4.95525 15.5939008,5.405 16.3197466,5.622 C16.5478843,5.6895 16.7586722,5.47025 16.7586722,5.27475 L17.6328981,1.7005 C17.6328981,1.60875 17.6007879,1.499 17.4930634,1.42425 C17.1983747,1.22125 15.4004628,0.25 10.8584242,0.25 C5.62627548,0.25 0.258953168,2.399 0.258953168,12.7305 C0.258953168,23.062 6.40391185,24.6015 11.5821983,24.6015 C15.869686,24.6015 18.4706116,22.83275 18.4706116,22.83275 C18.5778182,22.7755 18.5894711,22.63075 18.5894711,22.56475 L18.5894711,11.02625 C18.5894711,10.831 18.4255537,10.6725 18.2233113,10.6725" id="Fill-3"></path>
                <path d="M58.5943691,1.60575 C58.5943691,1.40875 58.4327824,1.25 58.230281,1.25 L53.8172011,1.25 C53.6157355,1.25 53.4518182,1.40875 53.4518182,1.60575 C53.4518182,1.6065 53.4531129,9.83925 53.4531129,9.83925 L46.574022,9.83925 L46.574022,1.60575 C46.574022,1.40875 46.4119174,1.25 46.2099339,1.25 L41.7971129,1.25 C41.5964242,1.25 41.4325069,1.40875 41.4325069,1.60575 L41.4325069,23.9 C41.4325069,24.09675 41.5964242,24.2565 41.7971129,24.2565 L46.2099339,24.2565 C46.4119174,24.2565 46.574022,24.09675 46.574022,23.9 L46.574022,14.36375 L53.4531129,14.36375 C53.4531129,14.36375 53.4409421,23.89925 53.4409421,23.9 C53.4409421,24.09675 53.6046006,24.2565 53.806584,24.2565 L58.230022,24.2565 C58.4322645,24.2565 58.5938512,24.09675 58.5943691,23.9 L58.5943691,1.60575" id="Fill-4"></path>
                <path d="M26.6662204,4.52375 C26.6662204,2.98975 25.3924298,1.75 23.820584,1.75 C22.250292,1.75 20.9752066,2.98975 20.9752066,4.52375 C20.9752066,6.0565 22.250292,7.29975 23.820584,7.29975 C25.3924298,7.29975 26.6662204,6.0565 26.6662204,4.52375" id="Fill-5"></path>
                <path d="M26.380854,19.14625 C26.380854,18.575 26.380854,8.85525 26.380854,8.85525 C26.380854,8.65975 26.2174545,8.5 26.01573,8.5 L21.6163747,8.5 C21.4146501,8.5 21.2341598,8.701 21.2341598,8.89625 C21.2341598,8.89625 21.2341598,21.27975 21.2341598,23.6405 C21.2341598,24.07375 21.5138292,24.20275 21.8755868,24.20275 C21.8755868,24.20275 23.7535152,24.20275 25.839124,24.20275 C26.2741653,24.20275 26.380854,23.9965 26.380854,23.6335 C26.380854,22.84325 26.380854,19.74725 26.380854,19.14625" id="Fill-6"></path>
                <path d="M75.4610248,8.5 L71.0818678,8.5 C70.8811791,8.5 70.7175207,8.66 70.7175207,8.85675 L70.7175207,19.788 C70.7175207,19.788 69.6047989,20.574 68.0257025,20.574 C66.446865,20.574 66.0278788,19.88225 66.0278788,18.38975 C66.0278788,16.895 66.0278788,8.85675 66.0278788,8.85675 C66.0278788,8.66 65.8647383,8.5 65.6635317,8.5 L61.2188595,8.5 C61.0184298,8.5 60.8539945,8.66 60.8539945,8.85675 C60.8539945,8.85675 60.8539945,14.678 60.8539945,19.11125 C60.8539945,23.54525 63.4134876,24.63 66.9344738,24.63 C69.8233554,24.63 72.1523802,23.089 72.1523802,23.089 C72.1523802,23.089 72.2632121,23.90125 72.313449,23.99725 C72.363427,24.09325 72.4941983,24.1905 72.6355868,24.1905 L75.4630964,24.17825 C75.6635262,24.17825 75.8279614,24.01825 75.8279614,23.82225 L75.8264077,8.85675 C75.8264077,8.66 75.6630083,8.5 75.4610248,8.5" id="Fill-7"></path>
                <path d="M85.8100882,20.64475 C84.2910689,20.60025 83.2606942,19.9345 83.2606942,19.9345 L83.2606942,12.8745 C83.2606942,12.8745 84.2770854,12.273 85.5242039,12.1655 C87.1012287,12.029 88.6207658,12.489 88.6207658,16.121 C88.6207658,19.95075 87.9350579,20.7065 85.8100882,20.64475 Z M87.5373058,8.0835 C85.0500606,8.0835 83.3583196,9.15475 83.3583196,9.15475 L83.3583196,1.60575 C83.3583196,1.40875 83.1951791,1.25 82.9942314,1.25 L78.5684628,1.25 C78.3672562,1.25 78.2038567,1.40875 78.2038567,1.60575 L78.2038567,23.9 C78.2038567,24.09675 78.3672562,24.2565 78.5689807,24.2565 C78.5694986,24.2565 81.6386116,24.2565 81.6396474,24.2565 C81.7779284,24.2565 81.8825455,24.18775 81.9599725,24.0675 C82.0363636,23.9475 82.1464187,23.03925 82.1464187,23.03925 C82.1464187,23.03925 83.9559835,24.695 87.3816749,24.695 C91.4037355,24.695 93.7102314,22.7255 93.7102314,15.8535 C93.7102314,8.9815 90.0263636,8.0835 87.5373058,8.0835 Z" id="Fill-8"></path>
                <path d="M39.0175096,8.46175 L35.7070523,8.46175 C35.7070523,8.46175 35.7021322,4.24075 35.7021322,4.23975 C35.7021322,4.07975 35.6166777,4 35.4253113,4 L30.9143471,4 C30.7387769,4 30.6447769,4.0745 30.6447769,4.23725 L30.6447769,8.60025 C30.6447769,8.60025 28.3841157,9.12725 28.2310744,9.1695 C28.0790689,9.21225 27.9669421,9.34775 27.9669421,9.5095 L27.9669421,12.25125 C27.9669421,12.4485 28.1300826,12.6075 28.3318072,12.6075 L30.6447769,12.6075 C30.6447769,12.6075 30.6447769,15.475 30.6447769,19.2035 C30.6447769,24.10275 34.2043471,24.584 36.6061377,24.584 C37.7038402,24.584 39.0167328,24.2435 39.2334766,24.1665 C39.3645069,24.11975 39.4406391,23.98875 39.4406391,23.8465 L39.4445234,20.8305 C39.4445234,20.634 39.2723196,20.4745 39.0786226,20.4745 C38.8854435,20.4745 38.3921377,20.5505 37.8840716,20.5505 C36.2578457,20.5505 35.7070523,19.8205 35.7070523,18.87575 C35.7070523,17.9315 35.7067934,12.6075 35.7067934,12.6075 L39.0175096,12.6075 C39.2192342,12.6075 39.3826336,12.4485 39.3826336,12.25125 L39.3826336,8.817 C39.3826336,8.62025 39.2192342,8.46175 39.0175096,8.46175" id="Fill-9"></path>
            </g>
        </g>
    </g>
</svg>